<svg viewBox="0 0 660 664" role="img" aria-label="대상 판별에서 크리프 시험, 곡선 정리, 모델 피팅과 외삽, 물성 카드, 검증으로 이어지는 여섯 단계" style="width:100%;height:auto;overflow:visible"><defs><marker id="cr_ah" viewBox="0 0 10 10" refX="9" refY="5" markerWidth="7" markerHeight="7" orient="auto-start-reverse"><path d="M0,0 L10,5 L0,10 z" fill="currentColor"></path></marker><marker id="cr_as" viewBox="0 0 10 10" refX="9" refY="5" markerWidth="6" markerHeight="6" orient="auto-start-reverse"><path d="M0,0 L10,5 L0,10 z" fill="currentColor" fill-opacity=".55"></path></marker></defs><g fill="none" stroke="currentColor" stroke-opacity=".38"><rect x="155" y="14" width="330" height="60" rx="3"></rect><rect x="155" y="128" width="330" height="60" rx="3"></rect><rect x="155" y="242" width="330" height="60" rx="3"></rect><rect x="155" y="356" width="330" height="60" rx="3"></rect><rect x="155" y="470" width="330" height="60" rx="3"></rect><rect x="155" y="584" width="330" height="60" rx="3"></rect></g><g stroke="currentColor" stroke-opacity=".55" stroke-width="1.4" marker-end="url(#cr_ah)"><line x1="320.0" y1="78" x2="320.0" y2="124"></line><line x1="320.0" y1="192" x2="320.0" y2="238"></line><line x1="320.0" y1="306" x2="320.0" y2="352"></line><line x1="320.0" y1="420" x2="320.0" y2="466"></line><line x1="320.0" y1="534" x2="320.0" y2="580"></line></g><g font-family="IBM Plex Mono, ui-monospace, monospace" font-size="11" fill="currentColor" fill-opacity=".55" text-anchor="end"><text x="140" y="49">01</text><text x="140" y="163">02</text><text x="140" y="277">03</text><text x="140" y="391">04</text><text x="140" y="505">05</text><text x="140" y="619">06</text></g><g font-family="IBM Plex Sans KR, sans-serif" font-size="14.5" font-weight="500" fill="currentColor"><text x="176" y="42">대상 판별</text><text x="176" y="156">크리프 · 완화 시험</text><text x="176" y="270">곡선 정리</text><text x="176" y="384">모델 피팅 · 외삽</text><text x="176" y="498">물성 카드</text><text x="176" y="612">검증</text></g><g font-family="IBM Plex Sans KR, sans-serif" font-size="11.5" fill="currentColor" fill-opacity=".6"><text x="176" y="62">변형이 문제인가, 파단이 문제인가</text><text x="176" y="176">응력 × 온도 매트릭스, 장시간</text><text x="176" y="290">1·2·3차 분리, 정상 속도 추출</text><text x="176" y="404">Norton-Bailey / 등시간 / Larson-Miller</text><text x="176" y="518">*CREEP · TB,CREEP · Anand</text><text x="176" y="632">단일 요소 · 볼트 이완 · 부품 상관</text></g><g font-family="IBM Plex Mono, ui-monospace, monospace" font-size="11" fill="currentColor" fill-opacity=".62"><text x="336" y="105">시편 · 하중 방식</text><text x="336" y="219">ε(t) 또는 σ(t) 원데이터</text><text x="336" y="333">ε̇_s, t_R</text><text x="336" y="447">A, n, m 또는 Ec(t)</text><text x="336" y="561">.inp / .dat</text></g><path d="M155,614 C 96,614 96,372 155,372" fill="none" stroke="currentColor" stroke-opacity=".4" stroke-width="1.3" stroke-dasharray="5 4" marker-end="url(#cr_ah)"></path><g font-family="IBM Plex Sans KR, sans-serif" font-size="11" fill="currentColor" fill-opacity=".55" text-anchor="end"><text x="86" y="494">변형량이</text><text x="86" y="510">안 맞으면</text></g></svg>