<svg xmlns="http://www.w3.org/2000/svg" viewBox="0 0 660 664" role="img" aria-label="시험 계획에서 피로 시험, 곡선 추출, 보정, 수명 계산, 검증으로 이어지는 여섯 단계" style="width:100%;height:auto;overflow:visible"><defs><marker id="ft_ah" viewBox="0 0 10 10" refX="9" refY="5" markerWidth="7" markerHeight="7" orient="auto-start-reverse"><path d="M0,0 L10,5 L0,10 z" fill="currentColor"></path></marker><marker id="ft_as" viewBox="0 0 10 10" refX="9" refY="5" markerWidth="6" markerHeight="6" orient="auto-start-reverse"><path d="M0,0 L10,5 L0,10 z" fill="currentColor" fill-opacity=".55"></path></marker></defs><g fill="none" stroke="currentColor" stroke-opacity=".38"><rect x="155" y="14" width="330" height="60" rx="3"></rect><rect x="155" y="128" width="330" height="60" rx="3"></rect><rect x="155" y="242" width="330" height="60" rx="3"></rect><rect x="155" y="356" width="330" height="60" rx="3"></rect><rect x="155" y="470" width="330" height="60" rx="3"></rect><rect x="155" y="584" width="330" height="60" rx="3"></rect></g><g stroke="currentColor" stroke-opacity=".55" stroke-width="1.4" marker-end="url(#ft_ah)"><line x1="320.0" y1="78" x2="320.0" y2="124"></line><line x1="320.0" y1="192" x2="320.0" y2="238"></line><line x1="320.0" y1="306" x2="320.0" y2="352"></line><line x1="320.0" y1="420" x2="320.0" y2="466"></line><line x1="320.0" y1="534" x2="320.0" y2="580"></line></g><g font-family="IBM Plex Mono, ui-monospace, monospace" font-size="11" fill="currentColor" fill-opacity=".55" text-anchor="end"><text x="140" y="49">01</text><text x="140" y="163">02</text><text x="140" y="277">03</text><text x="140" y="391">04</text><text x="140" y="505">05</text><text x="140" y="619">06</text></g><g font-family="IBM Plex Sans KR, sans-serif" font-size="14.5" font-weight="500" fill="currentColor"><text x="176" y="42">시험 계획 · 분기 결정</text><text x="176" y="156">피로 시험</text><text x="176" y="270">곡선 · 산포 추출</text><text x="176" y="384">보정</text><text x="176" y="498">수명 계산</text><text x="176" y="612">검증</text></g><g font-family="IBM Plex Sans KR, sans-serif" font-size="11.5" fill="currentColor" fill-opacity=".6"><text x="176" y="62">탄성이면 S-N, 국부 소성이면 ε-N</text><text x="176" y="176">3수준 이상 × 반복 시편</text><text x="176" y="290">Basquin b, ε-N 4상수, 순환 곡선</text><text x="176" y="404">평균응력 · 표면 · 크기 · 노치</text><text x="176" y="518">FE 응력 → 사이클 계수 → Miner</text><text x="176" y="632">시편 재현 · 부품 내구 시험 상관</text></g><g font-family="IBM Plex Mono, ui-monospace, monospace" font-size="11" fill="currentColor" fill-opacity=".62"><text x="336" y="105">시편 형상 · 하중 방식</text><text x="336" y="219">S-N / ε-N 원데이터</text><text x="336" y="333">σ′f, b, ε′f, c, K′, n′</text><text x="336" y="447">보정된 설계 곡선</text><text x="336" y="561">.fes / .dbase / 수명 맵</text></g><path d="M155,614 C 96,614 96,372 155,372" fill="none" stroke="currentColor" stroke-opacity=".4" stroke-width="1.3" stroke-dasharray="5 4" marker-end="url(#ft_ah)"></path><g font-family="IBM Plex Sans KR, sans-serif" font-size="11" fill="currentColor" fill-opacity=".55" text-anchor="end"><text x="86" y="494">안 맞으면</text><text x="86" y="510">보정 재검토</text></g></svg>