<svg viewBox="0 0 900 560" role="img" aria-label="하중과 환경에서 손상 메커니즘을 거쳐 CAE 반영 형태로 이어지는 장기수명 물성 지도" style="width:100%;height:auto;overflow:visible"><defs><marker id="l_ah" viewBox="0 0 10 10" refX="9" refY="5" markerWidth="7" markerHeight="7" orient="auto-start-reverse"><path d="M0,0 L10,5 L0,10 z" fill="currentColor"></path></marker><marker id="l_as" viewBox="0 0 10 10" refX="9" refY="5" markerWidth="6" markerHeight="6" orient="auto-start-reverse"><path d="M0,0 L10,5 L0,10 z" fill="currentColor" fill-opacity=".55"></path></marker></defs><rect x="14" y="176" width="872" height="150" rx="4" fill="currentColor" fill-opacity=".035" stroke="currentColor" stroke-opacity=".3" stroke-width="1.2" stroke-dasharray="7 5"></rect><text x="26" y="196" font-family="IBM Plex Sans KR, sans-serif" font-size="11.5" font-weight="500" fill="currentColor" fill-opacity=".7">열화 · 노화</text><rect x="30" y="24" width="196" height="62" rx="3" fill="none" stroke="currentColor" stroke-opacity=".4"></rect><text x="42" y="48" font-family="IBM Plex Sans KR, sans-serif" font-size="13.5" font-weight="500" fill="currentColor">반복 하중</text><text x="42" y="66" font-family="IBM Plex Sans KR, sans-serif" font-size="10.5" fill="currentColor" fill-opacity=".58">진동 · 주행 · 열사이클</text><rect x="246" y="24" width="196" height="62" rx="3" fill="none" stroke="currentColor" stroke-opacity=".4"></rect><text x="258" y="48" font-family="IBM Plex Sans KR, sans-serif" font-size="13.5" font-weight="500" fill="currentColor">지속 하중 · 변형</text><text x="258" y="66" font-family="IBM Plex Sans KR, sans-serif" font-size="10.5" fill="currentColor" fill-opacity=".58">볼트 체결 · 압입 · 자중</text><rect x="462" y="24" width="196" height="62" rx="3" fill="none" stroke="currentColor" stroke-opacity=".4"></rect><text x="474" y="48" font-family="IBM Plex Sans KR, sans-serif" font-size="13.5" font-weight="500" fill="currentColor">온도 · 습도 · 화학</text><text x="474" y="66" font-family="IBM Plex Sans KR, sans-serif" font-size="10.5" fill="currentColor" fill-opacity=".58">엔진룸 · 옥외 · 세정액</text><rect x="678" y="24" width="196" height="62" rx="3" fill="none" stroke="currentColor" stroke-opacity=".4"></rect><text x="690" y="48" font-family="IBM Plex Sans KR, sans-serif" font-size="13.5" font-weight="500" fill="currentColor">접촉 · 상대운동</text><text x="690" y="66" font-family="IBM Plex Sans KR, sans-serif" font-size="10.5" fill="currentColor" fill-opacity=".58">미끄럼 · 프레팅</text><rect x="26" y="208" width="200" height="92" rx="3" fill="none" stroke="currentColor" stroke-opacity=".4"></rect><text x="38" y="232" font-family="IBM Plex Sans KR, sans-serif" font-size="13.5" font-weight="500" fill="currentColor">피로</text><text x="38" y="250" font-family="IBM Plex Sans KR, sans-serif" font-size="10.5" fill="currentColor" fill-opacity=".58">S-N (ASTM E466)</text><text x="38" y="265" font-family="IBM Plex Sans KR, sans-serif" font-size="10.5" fill="currentColor" fill-opacity=".58">ε-N (ASTM E606)</text><text x="38" y="280" font-family="IBM Plex Sans KR, sans-serif" font-size="10.5" fill="currentColor" fill-opacity=".58">순환 응력-변형률</text><rect x="242" y="208" width="200" height="92" rx="3" fill="none" stroke="currentColor" stroke-opacity=".4"></rect><text x="254" y="232" font-family="IBM Plex Sans KR, sans-serif" font-size="13.5" font-weight="500" fill="currentColor">크리프 · 응력완화</text><text x="254" y="250" font-family="IBM Plex Sans KR, sans-serif" font-size="10.5" fill="currentColor" fill-opacity=".58">장기 크리프 (ISO 899)</text><text x="254" y="265" font-family="IBM Plex Sans KR, sans-serif" font-size="10.5" fill="currentColor" fill-opacity=".58">압축응력완화 (ISO 3384)</text><text x="254" y="280" font-family="IBM Plex Sans KR, sans-serif" font-size="10.5" fill="currentColor" fill-opacity=".58">크리프 파단</text><rect x="458" y="208" width="200" height="92" rx="3" fill="none" stroke="currentColor" stroke-opacity=".4"></rect><text x="470" y="232" font-family="IBM Plex Sans KR, sans-serif" font-size="13.5" font-weight="500" fill="currentColor">균열 진전</text><text x="470" y="250" font-family="IBM Plex Sans KR, sans-serif" font-size="10.5" fill="currentColor" fill-opacity=".58">da/dN (ASTM E647)</text><text x="470" y="265" font-family="IBM Plex Sans KR, sans-serif" font-size="10.5" fill="currentColor" fill-opacity=".58">K_IC · J_IC</text><text x="470" y="280" font-family="IBM Plex Sans KR, sans-serif" font-size="10.5" fill="currentColor" fill-opacity=".58">DCB · ENF (G_IC)</text><rect x="674" y="208" width="200" height="92" rx="3" fill="none" stroke="currentColor" stroke-opacity=".4"></rect><text x="686" y="232" font-family="IBM Plex Sans KR, sans-serif" font-size="13.5" font-weight="500" fill="currentColor">마모 · 부식</text><text x="686" y="250" font-family="IBM Plex Sans KR, sans-serif" font-size="10.5" fill="currentColor" fill-opacity=".58">pin-on-disk</text><text x="686" y="265" font-family="IBM Plex Sans KR, sans-serif" font-size="10.5" fill="currentColor" fill-opacity=".58">염수분무 · 순환부식</text><text x="686" y="280" font-family="IBM Plex Sans KR, sans-serif" font-size="10.5" fill="currentColor" fill-opacity=".58">프레팅</text><rect x="26" y="428" width="200" height="62" rx="3" fill="currentColor" fill-opacity=".05" stroke="currentColor" stroke-opacity=".4"></rect><text x="38" y="452" font-family="IBM Plex Sans KR, sans-serif" font-size="13.5" font-weight="500" fill="currentColor">구성방정식에 반영</text><text x="38" y="470" font-family="IBM Plex Sans KR, sans-serif" font-size="10.5" fill="currentColor" fill-opacity=".58">Norton · Anand · Prony</text><rect x="242" y="428" width="200" height="62" rx="3" fill="currentColor" fill-opacity=".05" stroke="currentColor" stroke-opacity=".4"></rect><text x="254" y="452" font-family="IBM Plex Sans KR, sans-serif" font-size="13.5" font-weight="500" fill="currentColor">손상 누적 후처리</text><text x="254" y="470" font-family="IBM Plex Sans KR, sans-serif" font-size="10.5" fill="currentColor" fill-opacity=".58">Miner · nCode · FEMFAT</text><rect x="458" y="428" width="200" height="62" rx="3" fill="currentColor" fill-opacity=".05" stroke="currentColor" stroke-opacity=".4"></rect><text x="470" y="452" font-family="IBM Plex Sans KR, sans-serif" font-size="13.5" font-weight="500" fill="currentColor">균열 · 계면 해석</text><text x="470" y="470" font-family="IBM Plex Sans KR, sans-serif" font-size="10.5" fill="currentColor" fill-opacity=".58">Paris · XFEM · CZM</text><rect x="674" y="428" width="200" height="62" rx="3" fill="currentColor" fill-opacity=".05" stroke="currentColor" stroke-opacity=".4"></rect><text x="686" y="452" font-family="IBM Plex Sans KR, sans-serif" font-size="13.5" font-weight="500" fill="currentColor">해석 밖 허용치</text><text x="686" y="470" font-family="IBM Plex Sans KR, sans-serif" font-size="10.5" fill="currentColor" fill-opacity=".58">가속계수 · 설계 판정</text><path d="M128,86 C128,143 126,143 126,200" fill="none" stroke="currentColor" stroke-opacity=".45" stroke-width="1.3" marker-end="url(#l_as)"></path><path d="M128,86 C128,143 558,143 558,200" fill="none" stroke="currentColor" stroke-opacity=".45" stroke-width="1.3" marker-end="url(#l_as)"></path><path d="M344,86 C344,143 342,143 342,200" fill="none" stroke="currentColor" stroke-opacity=".45" stroke-width="1.3" marker-end="url(#l_as)"></path><path d="M344,86 C344,143 558,143 558,200" fill="none" stroke="currentColor" stroke-opacity=".45" stroke-width="1.3" marker-end="url(#l_as)"></path><path d="M560,86 C560,143 342,143 342,200" fill="none" stroke="currentColor" stroke-opacity=".45" stroke-width="1.3" marker-end="url(#l_as)"></path><path d="M560,86 C560,143 774,143 774,200" fill="none" stroke="currentColor" stroke-opacity=".45" stroke-width="1.3" marker-end="url(#l_as)"></path><path d="M776,86 C776,143 774,143 774,200" fill="none" stroke="currentColor" stroke-opacity=".45" stroke-width="1.3" marker-end="url(#l_as)"></path><path d="M126,300 C126,360 342,360 342,420" fill="none" stroke="currentColor" stroke-opacity=".45" stroke-width="1.3" marker-end="url(#l_as)"></path><path d="M126,300 C126,360 558,360 558,420" fill="none" stroke="currentColor" stroke-opacity=".45" stroke-width="1.3" marker-end="url(#l_as)"></path><path d="M342,300 C342,360 126,360 126,420" fill="none" stroke="currentColor" stroke-opacity=".45" stroke-width="1.3" marker-end="url(#l_as)"></path><path d="M558,300 C558,360 558,360 558,420" fill="none" stroke="currentColor" stroke-opacity=".45" stroke-width="1.3" marker-end="url(#l_as)"></path><path d="M774,300 C774,360 774,360 774,420" fill="none" stroke="currentColor" stroke-opacity=".45" stroke-width="1.3" marker-end="url(#l_as)"></path><text x="14" y="14" font-family="IBM Plex Mono, ui-monospace, monospace" font-size="10.5" fill="currentColor" fill-opacity=".5" letter-spacing="1.5">하중 · 환경</text><text x="14" y="406" font-family="IBM Plex Mono, ui-monospace, monospace" font-size="10.5" fill="currentColor" fill-opacity=".5" letter-spacing="1.5">CAE 반영 형태</text></svg>