<svg viewBox="0 0 800 420" role="img" aria-label="공칭 곡선과 진응력 진변형률 곡선의 비교 및 네킹 이후 진응력이 정의되지 않는 구간" style="width:100%;height:auto;overflow:visible"><defs><marker id="t_ah" viewBox="0 0 10 10" refX="9" refY="5" markerWidth="7" markerHeight="7" orient="auto-start-reverse"><path d="M0,0 L10,5 L0,10 z" fill="currentColor"></path></marker></defs><line x1="70.0" y1="26" x2="70.0" y2="348" stroke="currentColor" stroke-opacity=".13" stroke-width="1"></line><text x="70.0" y="366" text-anchor="middle" fill="currentColor" fill-opacity=".62" font-size="11.5" font-family="IBM Plex Mono, ui-monospace, monospace">0%</text><line x1="163.8" y1="26" x2="163.8" y2="348" stroke="currentColor" stroke-opacity=".13" stroke-width="1"></line><text x="163.8" y="366" text-anchor="middle" fill="currentColor" fill-opacity=".62" font-size="11.5" font-family="IBM Plex Mono, ui-monospace, monospace">5%</text><line x1="257.5" y1="26" x2="257.5" y2="348" stroke="currentColor" stroke-opacity=".13" stroke-width="1"></line><text x="257.5" y="366" text-anchor="middle" fill="currentColor" fill-opacity=".62" font-size="11.5" font-family="IBM Plex Mono, ui-monospace, monospace">10%</text><line x1="351.2" y1="26" x2="351.2" y2="348" stroke="currentColor" stroke-opacity=".13" stroke-width="1"></line><text x="351.2" y="366" text-anchor="middle" fill="currentColor" fill-opacity=".62" font-size="11.5" font-family="IBM Plex Mono, ui-monospace, monospace">15%</text><line x1="445.0" y1="26" x2="445.0" y2="348" stroke="currentColor" stroke-opacity=".13" stroke-width="1"></line><text x="445.0" y="366" text-anchor="middle" fill="currentColor" fill-opacity=".62" font-size="11.5" font-family="IBM Plex Mono, ui-monospace, monospace">20%</text><line x1="538.8" y1="26" x2="538.8" y2="348" stroke="currentColor" stroke-opacity=".13" stroke-width="1"></line><text x="538.8" y="366" text-anchor="middle" fill="currentColor" fill-opacity=".62" font-size="11.5" font-family="IBM Plex Mono, ui-monospace, monospace">25%</text><line x1="632.5" y1="26" x2="632.5" y2="348" stroke="currentColor" stroke-opacity=".13" stroke-width="1"></line><text x="632.5" y="366" text-anchor="middle" fill="currentColor" fill-opacity=".62" font-size="11.5" font-family="IBM Plex Mono, ui-monospace, monospace">30%</text><line x1="70" y1="348.0" x2="670" y2="348.0" stroke="currentColor" stroke-opacity=".13" stroke-width="1"></line><text x="61" y="352.0" text-anchor="end" fill="currentColor" fill-opacity=".62" font-size="11.5" font-family="IBM Plex Mono, ui-monospace, monospace">0</text><line x1="70" y1="276.4" x2="670" y2="276.4" stroke="currentColor" stroke-opacity=".13" stroke-width="1"></line><text x="61" y="280.4" text-anchor="end" fill="currentColor" fill-opacity=".62" font-size="11.5" font-family="IBM Plex Mono, ui-monospace, monospace">200</text><line x1="70" y1="204.9" x2="670" y2="204.9" stroke="currentColor" stroke-opacity=".13" stroke-width="1"></line><text x="61" y="208.9" text-anchor="end" fill="currentColor" fill-opacity=".62" font-size="11.5" font-family="IBM Plex Mono, ui-monospace, monospace">400</text><line x1="70" y1="133.3" x2="670" y2="133.3" stroke="currentColor" stroke-opacity=".13" stroke-width="1"></line><text x="61" y="137.3" text-anchor="end" fill="currentColor" fill-opacity=".62" font-size="11.5" font-family="IBM Plex Mono, ui-monospace, monospace">600</text><line x1="70" y1="61.8" x2="670" y2="61.8" stroke="currentColor" stroke-opacity=".13" stroke-width="1"></line><text x="61" y="65.8" text-anchor="end" fill="currentColor" fill-opacity=".62" font-size="11.5" font-family="IBM Plex Mono, ui-monospace, monospace">800</text><rect x="70" y="26" width="600" height="322" fill="none" stroke="currentColor" stroke-opacity=".35" stroke-width="1"></rect><polyline points="73.17,223.04 74.43,217.70 75.66,213.23 76.88,209.37 78.09,205.97 79.29,202.93 80.48,200.17 81.67,197.64 82.85,195.31 84.04,193.15 85.21,191.13 86.39,189.23 87.56,187.45 88.73,185.76 89.90,184.16 91.07,182.63 92.24,181.18 93.41,179.80 94.57,178.47 95.74,177.20 96.90,175.98 98.07,174.80 99.23,173.67 100.40,172.57 101.56,171.52 102.72,170.50 103.89,169.51 105.05,168.56 106.21,167.63 107.38,166.73 108.54,165.86 109.70,165.01 110.87,164.18 112.03,163.38 113.19,162.60 114.36,161.84 115.52,161.10 116.69,160.37 117.85,159.66 119.02,158.98 120.18,158.30 121.35,157.64 122.51,157.00 123.68,156.37 124.85,155.76 126.01,155.15 127.18,154.57 128.35,153.99 129.52,153.42 130.69,152.87 131.85,152.33 133.02,151.80 134.19,151.27 135.36,150.76 136.54,150.26 137.71,149.77 138.88,149.29 140.05,148.81 141.22,148.34 142.40,147.89 143.57,147.44 144.74,147.00 145.92,146.56 147.09,146.14 148.27,145.72 149.45,145.30 150.62,144.90 151.80,144.50 152.98,144.11 154.16,143.72 155.34,143.34 156.52,142.97 157.70,142.60 158.88,142.24 160.06,141.89 161.24,141.53 162.42,141.19 163.61,140.85 164.79,140.52 165.97,140.19 167.16,139.86 168.34,139.54 169.53,139.23 170.72,138.92 171.90,138.61 173.09,138.31 174.28,138.01 175.47,137.72 176.66,137.43 177.85,137.14 179.04,136.86 180.23,136.59 181.42,136.31 182.62,136.05 183.81,135.78 185.00,135.52 186.20,135.26 187.39,135.01 188.59,134.75 189.78,134.51 190.98,134.26 192.18,134.02 193.38,133.78 194.58,133.55 195.78,133.32 196.98,133.09 198.18,132.86 199.38,132.64 200.58,132.42 201.78,132.21 202.99,131.99 204.19,131.78 205.40,131.57 206.60,131.37 207.81,131.17 209.01,130.96 210.22,130.77 211.43,130.57 212.64,130.38 213.85,130.19 215.06,130.00 216.27,129.82 217.48,129.63 218.69,129.45 219.90,129.27 221.12,129.10 222.33,128.93 223.55,128.75 224.76,128.58 225.98,128.42 227.19,128.25 228.41,128.09 229.63,127.93 230.85,127.77 232.07,127.61 233.29,127.46 234.51,127.30 235.73,127.15 236.95,127.00 238.17,126.86 239.40,126.71 240.62,126.57 241.85,126.42 243.07,126.28 244.30,126.15 245.53,126.01 246.75,125.87 247.98,125.74 249.21,125.61 250.44,125.48 251.67,125.35 252.90,125.22 254.13,125.10 255.37,124.98 256.60,124.85 257.83,124.73 259.07,124.62 260.30,124.50 261.54,124.38 262.78,124.27 264.01,124.15 265.25,124.04 266.49,123.93 267.73,123.82 268.97,123.72 270.21,123.61 271.45,123.51 272.69,123.40 273.94,123.30 275.18,123.20 276.43,123.10 277.67,123.01 278.92,122.91 280.16,122.81 281.41,122.72 282.66,122.63 283.91,122.53 285.16,122.44 286.41,122.36 287.66,122.27 288.91,122.18 290.16,122.10 291.41,122.01 292.67,121.93 293.92,121.85 295.18,121.76 296.43,121.68 297.69,121.61 298.95,121.53 300.21,121.45 301.46,121.38 302.72,121.30 303.98,121.23 305.24,121.15 306.51,121.08 307.77,121.01 309.03,120.94 310.30,120.88 311.56,120.81 312.83,120.74 314.09,120.68 315.36,120.61 316.63,120.55 317.89,120.49 319.16,120.42 320.43,120.36 321.70,120.30 322.97,120.24 324.25,120.19 325.52,120.13 326.79,120.07 328.07,120.02 329.34,119.96 330.62,119.91 331.89,119.86 333.17,119.80 334.45,119.75 335.73,119.70 337.01,119.65 338.29,119.61 339.57,119.56 340.85,119.51 342.13,119.47 343.41,119.42 344.70,119.38 345.98,119.33 347.27,119.29 348.55,119.25 349.84,119.20 351.13,119.16 352.41,119.12 353.70,119.09 354.99,119.05 356.28,119.01 357.58,118.97 358.87,118.94 360.16,118.90 361.45,118.87 362.75,118.83 364.04,118.80 365.34,118.77 366.63,118.73 367.93,118.70 369.23,118.67 370.53,118.64 371.83,118.61 373.13,118.58 374.43,118.56 375.73,118.53 377.03,118.50 378.34,118.47 379.64,118.45 380.95,118.42 382.25,118.40 383.56,118.38 384.87,118.35 386.17,118.33 387.48,118.31 388.79,118.29 390.10,118.27 391.41,118.25 392.72,118.23 394.04,118.21 395.35,118.19 396.66,118.17 397.98,118.16 399.29,118.14 400.61,118.13 401.93,118.11 403.25,118.10 404.56,118.08 405.88,118.07 407.20,118.05 408.52,118.04 409.85,118.03 411.17,118.02 412.49,118.01 413.82,118.00 415.14,117.99 416.47,117.98 417.79,117.97 419.12,117.96 420.45,117.95 421.78,117.94 423.11,117.94 424.44,117.93 425.77,117.93 427.10,117.92 428.43,117.92 429.77,117.91 431.10,117.91 432.43,117.90 433.77,117.90 435.11,117.90 436.44,117.90 437.78,117.89 439.12,117.89 440.46,117.89 441.80,117.89 443.14,117.89 443.14,117.89 443.95,117.90 444.75,117.93 445.55,117.96 446.36,118.01 447.16,118.06 447.96,118.12 448.77,118.19 449.57,118.27 450.37,118.35 451.18,118.44 451.98,118.54 452.78,118.64 453.59,118.75 454.39,118.86 455.19,118.98 456.00,119.11 456.80,119.24 457.60,119.38 458.41,119.52 459.21,119.67 460.01,119.82 460.82,119.98 461.62,120.15 462.42,120.31 463.23,120.49 464.03,120.67 464.83,120.85 465.64,121.04 466.44,121.23 467.24,121.43 468.05,121.63 468.85,121.84 469.66,122.05 470.46,122.27 471.26,122.49 472.07,122.72 472.87,122.95 473.67,123.18 474.48,123.42 475.28,123.66 476.08,123.91 476.89,124.16 477.69,124.42 478.49,124.68 479.30,124.94 480.10,125.21 480.90,125.48 481.71,125.76 482.51,126.04 483.31,126.32 484.12,126.61 484.92,126.91 485.72,127.20 486.53,127.50 487.33,127.81 488.13,128.12 488.94,128.43 489.74,128.74 490.54,129.06 491.35,129.39 492.15,129.71 492.95,130.05 493.76,130.38 494.56,130.72 495.36,131.06 496.17,131.41 496.97,131.76 497.78,132.11 498.58,132.47 499.38,132.83 500.19,133.20 500.99,133.56 501.79,133.94 502.60,134.31 503.40,134.69 504.20,135.07 505.01,135.46 505.81,135.85 506.61,136.24 507.42,136.64 508.22,137.04 509.02,137.44 509.83,137.85 510.63,138.26 511.43,138.67 512.24,139.09 513.04,139.51 513.84,139.93 514.65,140.36 515.45,140.79 516.25,141.23 517.06,141.66 517.86,142.11 518.66,142.55 519.47,143.00 520.27,143.45 521.07,143.90 521.88,144.36 522.68,144.82 523.48,145.29 524.29,145.75 525.09,146.22 525.90,146.70 526.70,147.17 527.50,147.65 528.31,148.14 529.11,148.62 529.91,149.11 530.72,149.61 531.52,150.10 532.32,150.60 533.13,151.10 533.93,151.61 534.73,152.12 535.54,152.63 536.34,153.15 537.14,153.66 537.95,154.19 538.75,154.71" fill="none" stroke="currentColor" stroke-opacity=".55" stroke-width="2.4"></polyline><polyline points="73.17,222.83 74.42,217.39 75.65,212.82 76.87,208.86 78.07,205.36 79.26,202.21 80.45,199.34 81.63,196.71 82.81,194.27 83.98,191.99 85.15,189.86 86.32,187.84 87.48,185.94 88.64,184.14 89.80,182.42 90.96,180.78 92.11,179.20 93.26,177.70 94.41,176.25 95.56,174.85 96.71,173.51 97.86,172.21 99.01,170.95 100.15,169.73 101.30,168.55 102.44,167.40 103.58,166.29 104.73,165.20 105.87,164.15 107.01,163.12 108.15,162.11 109.29,161.13 110.43,160.18 111.57,159.24 112.70,158.33 113.84,157.43 114.98,156.56 116.12,155.70 117.25,154.86 118.39,154.03 119.52,153.22 120.66,152.43 121.79,151.65 122.93,150.89 124.06,150.13 125.19,149.39 126.33,148.67 127.46,147.95 128.59,147.25 129.72,146.55 130.86,145.87 131.99,145.20 133.12,144.54 134.25,143.89 135.38,143.24 136.51,142.61 137.64,141.99 138.77,141.37 139.90,140.76 141.03,140.16 142.16,139.57 143.29,138.98 144.42,138.41 145.55,137.84 146.68,137.27 147.81,136.72 148.94,136.17 150.07,135.62 151.20,135.09 152.32,134.55 153.45,134.03 154.58,133.51 155.71,133.00 156.84,132.49 157.96,131.99 159.09,131.49 160.22,131.00 161.34,130.51 162.47,130.03 163.60,129.55 164.72,129.08 165.85,128.61 166.98,128.14 168.10,127.68 169.23,127.23 170.36,126.78 171.48,126.33 172.61,125.89 173.73,125.45 174.86,125.02 175.99,124.59 177.11,124.16 178.24,123.73 179.36,123.31 180.49,122.90 181.61,122.49 182.74,122.08 183.86,121.67 184.99,121.27 186.11,120.87 187.24,120.47 188.36,120.08 189.49,119.69 190.61,119.30 191.74,118.92 192.86,118.54 193.99,118.16 195.11,117.78 196.23,117.41 197.36,117.04 198.48,116.67 199.61,116.31 200.73,115.95 201.85,115.59 202.98,115.23 204.10,114.87 205.23,114.52 206.35,114.17 207.47,113.82 208.60,113.48 209.72,113.14 210.84,112.80 211.97,112.46 213.09,112.12 214.21,111.79 215.34,111.46 216.46,111.13 217.58,110.80 218.71,110.47 219.83,110.15 220.95,109.83 222.07,109.51 223.20,109.19 224.32,108.88 225.44,108.56 226.56,108.25 227.69,107.94 228.81,107.63 229.93,107.33 231.06,107.02 232.18,106.72 233.30,106.42 234.42,106.12 235.54,105.82 236.67,105.52 237.79,105.23 238.91,104.93 240.03,104.64 241.16,104.35 242.28,104.07 243.40,103.78 244.52,103.49 245.64,103.21 246.77,102.93 247.89,102.65 249.01,102.37 250.13,102.09 251.25,101.81 252.37,101.54 253.50,101.27 254.62,100.99 255.74,100.72 256.86,100.45 257.98,100.18 259.10,99.92 260.23,99.65 261.35,99.39 262.47,99.12 263.59,98.86 264.71,98.60 265.83,98.34 266.95,98.09 268.08,97.83 269.20,97.57 270.32,97.32 271.44,97.07 272.56,96.81 273.68,96.56 274.80,96.31 275.92,96.06 277.04,95.82 278.17,95.57 279.29,95.32 280.41,95.08 281.53,94.84 282.65,94.59 283.77,94.35 284.89,94.11 286.01,93.87 287.13,93.64 288.25,93.40 289.37,93.16 290.50,92.93 291.62,92.69 292.74,92.46 293.86,92.23 294.98,92.00 296.10,91.77 297.22,91.54 298.34,91.31 299.46,91.08 300.58,90.86 301.70,90.63 302.82,90.41 303.94,90.18 305.06,89.96 306.18,89.74 307.30,89.52 308.42,89.29 309.54,89.08 310.66,88.86 311.78,88.64 312.90,88.42 314.03,88.21 315.15,87.99 316.27,87.78 317.39,87.56 318.51,87.35 319.63,87.14 320.75,86.93 321.87,86.72 322.99,86.51 324.11,86.30 325.23,86.09 326.35,85.88 327.47,85.67 328.59,85.47 329.71,85.26 330.83,85.06 331.95,84.85 333.07,84.65 334.19,84.45 335.31,84.25 336.43,84.05 337.55,83.85 338.67,83.65 339.79,83.45 340.91,83.25 342.03,83.05 343.14,82.85 344.26,82.66 345.38,82.46 346.50,82.27 347.62,82.07 348.74,81.88 349.86,81.69 350.98,81.49 352.10,81.30 353.22,81.11 354.34,80.92 355.46,80.73 356.58,80.54 357.70,80.35 358.82,80.16 359.94,79.98 361.06,79.79 362.18,79.60 363.30,79.42 364.42,79.23 365.54,79.05 366.66,78.86 367.78,78.68 368.90,78.50 370.01,78.32 371.13,78.13 372.25,77.95 373.37,77.77 374.49,77.59 375.61,77.41 376.73,77.23 377.85,77.06 378.97,76.88 380.09,76.70 381.21,76.52 382.33,76.35 383.45,76.17 384.57,76.00 385.68,75.82 386.80,75.65 387.92,75.47 389.04,75.30 390.16,75.13 391.28,74.96 392.40,74.78 393.52,74.61 394.64,74.44 395.76,74.27 396.88,74.10 397.99,73.93 399.11,73.76 400.23,73.59 401.35,73.43 402.47,73.26 403.59,73.09 404.71,72.93 405.83,72.76 406.95,72.59 408.07,72.43 409.18,72.26 410.30,72.10" fill="none" stroke="#2F6FC4" stroke-width="2.8"></polyline><polyline points="410.30,72.10 414.07,71.55 417.84,71.01 421.60,70.47 425.37,69.93 429.13,69.40 432.90,68.88 436.67,68.36 440.43,67.84 444.20,67.33 447.96,66.82 451.73,66.31 455.50,65.81 459.26,65.32 463.03,64.82 466.79,64.33 470.56,63.85 474.33,63.37 478.09,62.89 481.86,62.42 485.62,61.95 489.39,61.48 493.16,61.02 496.92,60.56 500.69,60.10 504.45,59.65 508.22,59.20 511.99,58.75 515.75,58.31 519.52,57.86 523.28,57.43 527.05,56.99 530.82,56.56 534.58,56.13 538.35,55.70 542.12,55.28 545.88,54.86 549.65,54.44 553.41,54.03 557.18,53.61 560.95,53.20 564.71,52.80 568.48,52.39 572.24,51.99 576.01,51.59 579.78,51.19 583.54,50.80 587.31,50.40 591.07,50.01 594.84,49.63 598.61,49.24 602.37,48.86 606.14,48.48 609.90,48.10 613.67,47.72 617.44,47.35 621.20,46.97 624.97,46.60 628.73,46.23 632.50,45.87" fill="none" stroke="#2F6FC4" stroke-width="2" stroke-dasharray="6 5" stroke-opacity=".55"></polyline><line x1="410.3" y1="26" x2="410.3" y2="348" stroke="#C4402B" stroke-width="1.2" stroke-dasharray="4 4" stroke-opacity=".8"></line><text x="417.3" y="42" fill="#C4402B" font-size="11.5" font-family="IBM Plex Mono, ui-monospace, monospace">네킹 시작</text><text x="417.3" y="58" fill="#C4402B" font-size="11.5" font-family="IBM Plex Sans KR, sans-serif" fill-opacity=".8">여기부터 변환식 무효</text><text x="454.4" y="54.8" fill="#2F6FC4" font-size="12.5" font-family="IBM Plex Mono, ui-monospace, monospace">진응력 σ = s(1+e)</text><text x="454.4" y="194.2" fill="currentColor" fill-opacity=".62" font-size="11.5" font-family="IBM Plex Mono, ui-monospace, monospace">공칭응력 s = F / A₀</text><text x="510.6" y="68.8" fill="currentColor" fill-opacity=".62" font-size="11.5" font-family="IBM Plex Mono, ui-monospace, monospace">외삽 (측정 아님)</text><text x="670.0" y="384" text-anchor="end" fill="currentColor" fill-opacity=".62" font-size="11.5" font-family="IBM Plex Mono, ui-monospace, monospace">변형률</text><text x="6" y="18" fill="currentColor" fill-opacity=".62" font-size="11.5" font-family="IBM Plex Mono, ui-monospace, monospace">응력 [MPa]</text></svg>