<svg viewBox="0 0 780 400" role="img" aria-label="변형률 속도가 커질수록 응력 곡선 전체가 위로 올라가는 Cowper-Symonds 스케일링" style="width:100%;height:auto;overflow:visible"><defs><marker id="t_ah" viewBox="0 0 10 10" refX="9" refY="5" markerWidth="7" markerHeight="7" orient="auto-start-reverse"><path d="M0,0 L10,5 L0,10 z" fill="currentColor"></path></marker></defs><line x1="70.0" y1="26" x2="70.0" y2="328" stroke="currentColor" stroke-opacity=".13" stroke-width="1"></line><text x="70.0" y="346" text-anchor="middle" fill="currentColor" fill-opacity=".62" font-size="11.5" font-family="IBM Plex Mono, ui-monospace, monospace">0%</text><line x1="173.6" y1="26" x2="173.6" y2="328" stroke="currentColor" stroke-opacity=".13" stroke-width="1"></line><text x="173.6" y="346" text-anchor="middle" fill="currentColor" fill-opacity=".62" font-size="11.5" font-family="IBM Plex Mono, ui-monospace, monospace">5%</text><line x1="277.1" y1="26" x2="277.1" y2="328" stroke="currentColor" stroke-opacity=".13" stroke-width="1"></line><text x="277.1" y="346" text-anchor="middle" fill="currentColor" fill-opacity=".62" font-size="11.5" font-family="IBM Plex Mono, ui-monospace, monospace">10%</text><line x1="380.7" y1="26" x2="380.7" y2="328" stroke="currentColor" stroke-opacity=".13" stroke-width="1"></line><text x="380.7" y="346" text-anchor="middle" fill="currentColor" fill-opacity=".62" font-size="11.5" font-family="IBM Plex Mono, ui-monospace, monospace">15%</text><line x1="484.3" y1="26" x2="484.3" y2="328" stroke="currentColor" stroke-opacity=".13" stroke-width="1"></line><text x="484.3" y="346" text-anchor="middle" fill="currentColor" fill-opacity=".62" font-size="11.5" font-family="IBM Plex Mono, ui-monospace, monospace">20%</text><line x1="587.9" y1="26" x2="587.9" y2="328" stroke="currentColor" stroke-opacity=".13" stroke-width="1"></line><text x="587.9" y="346" text-anchor="middle" fill="currentColor" fill-opacity=".62" font-size="11.5" font-family="IBM Plex Mono, ui-monospace, monospace">25%</text><line x1="70" y1="328.0" x2="650" y2="328.0" stroke="currentColor" stroke-opacity=".13" stroke-width="1"></line><text x="61" y="332.0" text-anchor="end" fill="currentColor" fill-opacity=".62" font-size="11.5" font-family="IBM Plex Mono, ui-monospace, monospace">0</text><line x1="70" y1="260.9" x2="650" y2="260.9" stroke="currentColor" stroke-opacity=".13" stroke-width="1"></line><text x="61" y="264.9" text-anchor="end" fill="currentColor" fill-opacity=".62" font-size="11.5" font-family="IBM Plex Mono, ui-monospace, monospace">200</text><line x1="70" y1="193.8" x2="650" y2="193.8" stroke="currentColor" stroke-opacity=".13" stroke-width="1"></line><text x="61" y="197.8" text-anchor="end" fill="currentColor" fill-opacity=".62" font-size="11.5" font-family="IBM Plex Mono, ui-monospace, monospace">400</text><line x1="70" y1="126.7" x2="650" y2="126.7" stroke="currentColor" stroke-opacity=".13" stroke-width="1"></line><text x="61" y="130.7" text-anchor="end" fill="currentColor" fill-opacity=".62" font-size="11.5" font-family="IBM Plex Mono, ui-monospace, monospace">600</text><line x1="70" y1="59.6" x2="650" y2="59.6" stroke="currentColor" stroke-opacity=".13" stroke-width="1"></line><text x="61" y="63.6" text-anchor="end" fill="currentColor" fill-opacity=".62" font-size="11.5" font-family="IBM Plex Mono, ui-monospace, monospace">800</text><rect x="70" y="26" width="580" height="302" fill="none" stroke="currentColor" stroke-opacity=".35" stroke-width="1"></rect><polyline points="73.50,210.80 74.89,205.79 76.25,201.60 77.60,197.98 78.94,194.80 80.26,191.94 81.58,189.35 82.89,186.98 84.20,184.80 85.51,182.77 86.81,180.87 88.11,179.09 89.40,177.42 90.70,175.83 91.99,174.33 93.28,172.91 94.57,171.54 95.86,170.24 97.15,169.00 98.44,167.81 99.72,166.66 101.01,165.56 102.30,164.50 103.58,163.47 104.87,162.48 106.15,161.52 107.44,160.60 108.72,159.70 110.01,158.83 111.29,157.99 112.58,157.17 113.86,156.37 115.15,155.60 116.43,154.85 117.72,154.11 119.01,153.40 120.29,152.70 121.58,152.03 122.86,151.36 124.15,150.72 125.44,150.08 126.73,149.47 128.02,148.86 129.30,148.27 130.59,147.70 131.88,147.13 133.17,146.58 134.46,146.04 135.75,145.51 137.04,144.99 138.33,144.48 139.63,143.98 140.92,143.49 142.21,143.01 143.51,142.54 144.80,142.08 146.09,141.63 147.39,141.18 148.68,140.75 149.98,140.32 151.28,139.90 152.57,139.48 153.87,139.07 155.17,138.67 156.47,138.28 157.77,137.89 159.07,137.51 160.37,137.14 161.67,136.77 162.97,136.41 164.28,136.06 165.58,135.71 166.88,135.36 168.19,135.02 169.49,134.69 170.80,134.36 172.11,134.04 173.41,133.72 174.72,133.40 176.03,133.09 177.34,132.79 178.65,132.49 179.96,132.19 181.27,131.90 182.58,131.61 183.89,131.33 185.20,131.05 186.52,130.78 187.83,130.51 189.15,130.24 190.46,129.98 191.78,129.72 193.10,129.46 194.41,129.21 195.73,128.96 197.05,128.72 198.37,128.47 199.69,128.24 201.01,128.00 202.33,127.77 203.66,127.54 204.98,127.31 206.30,127.09 207.63,126.87 208.95,126.65 210.28,126.44 211.60,126.23 212.93,126.02 214.26,125.81 215.59,125.61 216.92,125.41 218.25,125.21 219.58,125.02 220.91,124.82 222.24,124.63 223.58,124.45 224.91,124.26 226.25,124.08 227.58,123.90 228.92,123.72 230.25,123.54 231.59,123.37 232.93,123.20 234.27,123.03 235.61,122.86 236.95,122.70 238.29,122.53 239.63,122.37 240.97,122.21 242.32,122.06 243.66,121.90 245.01,121.75 246.35,121.60 247.70,121.45 249.05,121.30 250.39,121.15 251.74,121.01 253.09,120.87 254.44,120.73 255.79,120.59 257.14,120.45 258.50,120.32 259.85,120.19 261.20,120.06 262.56,119.93 263.91,119.80 265.27,119.67 266.63,119.55 267.99,119.42 269.34,119.30 270.70,119.18 272.06,119.06 273.42,118.94 274.79,118.83 276.15,118.71 277.51,118.60 278.87,118.49 280.24,118.38 281.60,118.27 282.97,118.16 284.34,118.06 285.71,117.95 287.07,117.85 288.44,117.75 289.81,117.65 291.18,117.55 292.56,117.45 293.93,117.35 295.30,117.26 296.68,117.16 298.05,117.07 299.43,116.98 300.80,116.89 302.18,116.80 303.56,116.71 304.94,116.62 306.32,116.54 307.70,116.45 309.08,116.37 310.46,116.29 311.84,116.21 313.23,116.13 314.61,116.05 315.99,115.97 317.38,115.89 318.77,115.82 320.15,115.74 321.54,115.67 322.93,115.59 324.32,115.52 325.71,115.45 327.10,115.38 328.50,115.31 329.89,115.24 331.28,115.18 332.68,115.11 334.07,115.05 335.47,114.98 336.87,114.92 338.26,114.86 339.66,114.80 341.06,114.73 342.46,114.68 343.86,114.62 345.27,114.56 346.67,114.50 348.07,114.45 349.48,114.39 350.88,114.34 352.29,114.28 353.69,114.23 355.10,114.18 356.51,114.13 357.92,114.08 359.33,114.03 360.74,113.98 362.15,113.93 363.56,113.88 364.98,113.84 366.39,113.79 367.81,113.75 369.22,113.70 370.64,113.66 372.06,113.62 373.47,113.58 374.89,113.53 376.31,113.49 377.73,113.45 379.16,113.42 380.58,113.38 382.00,113.34 383.43,113.30 384.85,113.27 386.28,113.23 387.70,113.20 389.13,113.16 390.56,113.13 391.99,113.10 393.42,113.07 394.85,113.03 396.28,113.00 397.71,112.97 399.14,112.94 400.58,112.92 402.01,112.89 403.45,112.86 404.89,112.83 406.32,112.81 407.76,112.78 409.20,112.76 410.64,112.73 412.08,112.71 413.52,112.68 414.96,112.66 416.41,112.64 417.85,112.62 419.30,112.60 420.74,112.58 422.19,112.56 423.64,112.54 425.08,112.52 426.53,112.50 427.98,112.48 429.43,112.47 430.89,112.45 432.34,112.43 433.79,112.42 435.25,112.40 436.70,112.39 438.16,112.37 439.61,112.36 441.07,112.35 442.53,112.34 443.99,112.32 445.45,112.31 446.91,112.30 448.37,112.29 449.83,112.28 451.30,112.27 452.76,112.26 454.23,112.26 455.69,112.25 457.16,112.24 458.63,112.23 460.10,112.23 461.57,112.22 463.04,112.22 464.51,112.21 465.98,112.21 467.45,112.20 468.93,112.20 470.40,112.20 471.88,112.19 473.36,112.19 474.83,112.19 476.31,112.19 477.79,112.19 479.27,112.19 480.75,112.19 482.23,112.19 482.23,112.19 483.12,112.20 484.01,112.22 484.90,112.25 485.78,112.29 486.67,112.34 487.56,112.40 488.45,112.47 489.33,112.54 490.22,112.61 491.11,112.70 492.00,112.79 492.88,112.88 493.77,112.99 494.66,113.09 495.55,113.21 496.43,113.33 497.32,113.45 498.21,113.58 499.10,113.71 499.98,113.85 500.87,114.00 501.76,114.14 502.65,114.30 503.54,114.46 504.42,114.62 505.31,114.79 506.20,114.96 507.09,115.14 507.97,115.32 508.86,115.50 509.75,115.69 510.64,115.89 511.52,116.09 512.41,116.29 513.30,116.50 514.19,116.71 515.07,116.92 515.96,117.14 516.85,117.37 517.74,117.60 518.62,117.83 519.51,118.06 520.40,118.30 521.29,118.55 522.17,118.80 523.06,119.05 523.95,119.30 524.84,119.56 525.73,119.83 526.61,120.09 527.50,120.36 528.39,120.64 529.28,120.92 530.16,121.20 531.05,121.48 531.94,121.77 532.83,122.07 533.71,122.36 534.60,122.66 535.49,122.97 536.38,123.27 537.26,123.58 538.15,123.90 539.04,124.22 539.93,124.54 540.81,124.86 541.70,125.19 542.59,125.52 543.48,125.86 544.36,126.20 545.25,126.54 546.14,126.88 547.03,127.23 547.92,127.58 548.80,127.94 549.69,128.30 550.58,128.66 551.47,129.03 552.35,129.39 553.24,129.77 554.13,130.14 555.02,130.52 555.90,130.90 556.79,131.29 557.68,131.67 558.57,132.07 559.45,132.46 560.34,132.86 561.23,133.26 562.12,133.66 563.00,134.07 563.89,134.48 564.78,134.89 565.67,135.31 566.55,135.73 567.44,136.15 568.33,136.58 569.22,137.01 570.11,137.44 570.99,137.88 571.88,138.31 572.77,138.76 573.66,139.20 574.54,139.65 575.43,140.10 576.32,140.55 577.21,141.01 578.09,141.47 578.98,141.93 579.87,142.39 580.76,142.86 581.64,143.33 582.53,143.81 583.42,144.29 584.31,144.77 585.19,145.25 586.08,145.74 586.97,146.22 587.86,146.72" fill="none" stroke="#2F6FC4" stroke-width="2.4"></polyline><text x="612.7" y="150.7" fill="#2F6FC4" font-size="11" font-family="IBM Plex Mono, ui-monospace, monospace">10⁻³ /s (준정적)</text><polyline points="73.50,200.83 74.89,195.39 76.25,190.84 77.60,186.92 78.94,183.46 80.26,180.36 81.58,177.55 82.89,174.98 84.20,172.61 85.51,170.41 86.81,168.35 88.11,166.42 89.40,164.60 90.70,162.88 91.99,161.25 93.28,159.70 94.57,158.23 95.86,156.82 97.15,155.47 98.44,154.17 99.72,152.93 101.01,151.73 102.30,150.58 103.58,149.47 104.87,148.39 106.15,147.35 107.44,146.35 108.72,145.38 110.01,144.43 111.29,143.52 112.58,142.63 113.86,141.77 115.15,140.93 116.43,140.11 117.72,139.31 119.01,138.54 120.29,137.78 121.58,137.05 122.86,136.33 124.15,135.63 125.44,134.94 126.73,134.27 128.02,133.62 129.30,132.98 130.59,132.35 131.88,131.74 133.17,131.14 134.46,130.55 135.75,129.98 137.04,129.41 138.33,128.86 139.63,128.32 140.92,127.79 142.21,127.27 143.51,126.76 144.80,126.26 146.09,125.76 147.39,125.28 148.68,124.81 149.98,124.34 151.28,123.88 152.57,123.43 153.87,122.99 155.17,122.56 156.47,122.13 157.77,121.71 159.07,121.30 160.37,120.89 161.67,120.50 162.97,120.10 164.28,119.72 165.58,119.34 166.88,118.96 168.19,118.60 169.49,118.23 170.80,117.88 172.11,117.53 173.41,117.18 174.72,116.84 176.03,116.50 177.34,116.17 178.65,115.85 179.96,115.53 181.27,115.21 182.58,114.90 183.89,114.59 185.20,114.29 186.52,113.99 187.83,113.70 189.15,113.41 190.46,113.12 191.78,112.84 193.10,112.56 194.41,112.29 195.73,112.02 197.05,111.75 198.37,111.49 199.69,111.23 201.01,110.98 202.33,110.72 203.66,110.48 204.98,110.23 206.30,109.99 207.63,109.75 208.95,109.51 210.28,109.28 211.60,109.05 212.93,108.83 214.26,108.60 215.59,108.38 216.92,108.17 218.25,107.95 219.58,107.74 220.91,107.53 222.24,107.32 223.58,107.12 224.91,106.92 226.25,106.72 227.58,106.52 228.92,106.33 230.25,106.14 231.59,105.95 232.93,105.76 234.27,105.58 235.61,105.40 236.95,105.22 238.29,105.04 239.63,104.87 240.97,104.70 242.32,104.53 243.66,104.36 245.01,104.19 246.35,104.03 247.70,103.87 249.05,103.71 250.39,103.55 251.74,103.39 253.09,103.24 254.44,103.09 255.79,102.94 257.14,102.79 258.50,102.64 259.85,102.50 261.20,102.36 262.56,102.21 263.91,102.08 265.27,101.94 266.63,101.80 267.99,101.67 269.34,101.54 270.70,101.41 272.06,101.28 273.42,101.15 274.79,101.02 276.15,100.90 277.51,100.78 278.87,100.66 280.24,100.54 281.60,100.42 282.97,100.30 284.34,100.19 285.71,100.08 287.07,99.96 288.44,99.85 289.81,99.74 291.18,99.64 292.56,99.53 293.93,99.42 295.30,99.32 296.68,99.22 298.05,99.12 299.43,99.02 300.80,98.92 302.18,98.82 303.56,98.73 304.94,98.63 306.32,98.54 307.70,98.45 309.08,98.36 310.46,98.27 311.84,98.18 313.23,98.09 314.61,98.01 315.99,97.92 317.38,97.84 318.77,97.76 320.15,97.67 321.54,97.59 322.93,97.51 324.32,97.44 325.71,97.36 327.10,97.28 328.50,97.21 329.89,97.14 331.28,97.06 332.68,96.99 334.07,96.92 335.47,96.85 336.87,96.78 338.26,96.71 339.66,96.65 341.06,96.58 342.46,96.52 343.86,96.45 345.27,96.39 346.67,96.33 348.07,96.27 349.48,96.21 350.88,96.15 352.29,96.09 353.69,96.03 355.10,95.98 356.51,95.92 357.92,95.87 359.33,95.81 360.74,95.76 362.15,95.71 363.56,95.66 364.98,95.61 366.39,95.56 367.81,95.51 369.22,95.46 370.64,95.42 372.06,95.37 373.47,95.32 374.89,95.28 376.31,95.24 377.73,95.19 379.16,95.15 380.58,95.11 382.00,95.07 383.43,95.03 384.85,94.99 386.28,94.95 387.70,94.91 389.13,94.88 390.56,94.84 391.99,94.81 393.42,94.77 394.85,94.74 396.28,94.70 397.71,94.67 399.14,94.64 400.58,94.61 402.01,94.58 403.45,94.55 404.89,94.52 406.32,94.49 407.76,94.46 409.20,94.43 410.64,94.41 412.08,94.38 413.52,94.36 414.96,94.33 416.41,94.31 417.85,94.28 419.30,94.26 420.74,94.24 422.19,94.22 423.64,94.20 425.08,94.18 426.53,94.16 427.98,94.14 429.43,94.12 430.89,94.10 432.34,94.08 433.79,94.07 435.25,94.05 436.70,94.04 438.16,94.02 439.61,94.01 441.07,93.99 442.53,93.98 443.99,93.97 445.45,93.95 446.91,93.94 448.37,93.93 449.83,93.92 451.30,93.91 452.76,93.90 454.23,93.89 455.69,93.88 457.16,93.88 458.63,93.87 460.10,93.86 461.57,93.85 463.04,93.85 464.51,93.84 465.98,93.84 467.45,93.83 468.93,93.83 470.40,93.83 471.88,93.82 473.36,93.82 474.83,93.82 476.31,93.82 477.79,93.82 479.27,93.82 480.75,93.82 482.23,93.82 482.23,93.82 483.12,93.83 484.01,93.85 484.90,93.89 485.78,93.93 486.67,93.99 487.56,94.05 488.45,94.12 489.33,94.20 490.22,94.28 491.11,94.37 492.00,94.47 492.88,94.57 493.77,94.68 494.66,94.80 495.55,94.92 496.43,95.05 497.32,95.19 498.21,95.33 499.10,95.47 499.98,95.62 500.87,95.78 501.76,95.94 502.65,96.11 503.54,96.28 504.42,96.46 505.31,96.64 506.20,96.83 507.09,97.02 507.97,97.21 508.86,97.42 509.75,97.62 510.64,97.83 511.52,98.05 512.41,98.27 513.30,98.49 514.19,98.72 515.07,98.96 515.96,99.20 516.85,99.44 517.74,99.69 518.62,99.94 519.51,100.20 520.40,100.46 521.29,100.72 522.17,100.99 523.06,101.26 523.95,101.54 524.84,101.82 525.73,102.11 526.61,102.40 527.50,102.69 528.39,102.99 529.28,103.29 530.16,103.60 531.05,103.91 531.94,104.22 532.83,104.54 533.71,104.86 534.60,105.18 535.49,105.51 536.38,105.85 537.26,106.18 538.15,106.53 539.04,106.87 539.93,107.22 540.81,107.57 541.70,107.93 542.59,108.29 543.48,108.65 544.36,109.02 545.25,109.39 546.14,109.76 547.03,110.14 547.92,110.52 548.80,110.91 549.69,111.30 550.58,111.69 551.47,112.09 552.35,112.49 553.24,112.89 554.13,113.30 555.02,113.71 555.90,114.12 556.79,114.54 557.68,114.96 558.57,115.39 559.45,115.82 560.34,116.25 561.23,116.68 562.12,117.12 563.00,117.56 563.89,118.01 564.78,118.46 565.67,118.91 566.55,119.37 567.44,119.82 568.33,120.29 569.22,120.75 570.11,121.22 570.99,121.69 571.88,122.17 572.77,122.65 573.66,123.13 574.54,123.62 575.43,124.10 576.32,124.60 577.21,125.09 578.09,125.59 578.98,126.09 579.87,126.60 580.76,127.10 581.64,127.62 582.53,128.13 583.42,128.65 584.31,129.17 585.19,129.69 586.08,130.22 586.97,130.75 587.86,131.29" fill="none" stroke="#8E63AE" stroke-width="2.4"></polyline><text x="612.7" y="135.3" fill="#8E63AE" font-size="11" font-family="IBM Plex Mono, ui-monospace, monospace">1 /s</text><polyline points="73.50,173.79 74.89,167.20 76.25,161.68 77.60,156.92 78.94,152.73 80.26,148.97 81.58,145.56 82.89,142.45 84.20,139.57 85.51,136.90 86.81,134.40 88.11,132.07 89.40,129.86 90.70,127.78 91.99,125.80 93.28,123.92 94.57,122.13 95.86,120.42 97.15,118.78 98.44,117.21 99.72,115.71 101.01,114.25 102.30,112.86 103.58,111.51 104.87,110.21 106.15,108.95 107.44,107.73 108.72,106.55 110.01,105.41 111.29,104.30 112.58,103.22 113.86,102.17 115.15,101.15 116.43,100.16 117.72,99.20 119.01,98.26 120.29,97.34 121.58,96.45 122.86,95.58 124.15,94.73 125.44,93.89 126.73,93.08 128.02,92.29 129.30,91.51 130.59,90.75 131.88,90.01 133.17,89.28 134.46,88.57 135.75,87.87 137.04,87.19 138.33,86.52 139.63,85.87 140.92,85.22 142.21,84.59 143.51,83.97 144.80,83.36 146.09,82.77 147.39,82.18 148.68,81.61 149.98,81.04 151.28,80.49 152.57,79.94 153.87,79.41 155.17,78.88 156.47,78.36 157.77,77.85 159.07,77.35 160.37,76.86 161.67,76.38 162.97,75.90 164.28,75.43 165.58,74.97 166.88,74.52 168.19,74.07 169.49,73.63 170.80,73.20 172.11,72.78 173.41,72.36 174.72,71.94 176.03,71.54 177.34,71.14 178.65,70.74 179.96,70.35 181.27,69.97 182.58,69.59 183.89,69.22 185.20,68.85 186.52,68.49 187.83,68.14 189.15,67.78 190.46,67.44 191.78,67.10 193.10,66.76 194.41,66.43 195.73,66.10 197.05,65.78 198.37,65.46 199.69,65.15 201.01,64.84 202.33,64.53 203.66,64.23 204.98,63.93 206.30,63.64 207.63,63.35 208.95,63.06 210.28,62.78 211.60,62.50 212.93,62.23 214.26,61.96 215.59,61.69 216.92,61.43 218.25,61.17 219.58,60.91 220.91,60.66 222.24,60.41 223.58,60.16 224.91,59.91 226.25,59.67 227.58,59.44 228.92,59.20 230.25,58.97 231.59,58.74 232.93,58.52 234.27,58.29 235.61,58.07 236.95,57.86 238.29,57.64 239.63,57.43 240.97,57.22 242.32,57.01 243.66,56.81 245.01,56.61 246.35,56.41 247.70,56.21 249.05,56.02 250.39,55.83 251.74,55.64 253.09,55.45 254.44,55.27 255.79,55.09 257.14,54.91 258.50,54.73 259.85,54.55 261.20,54.38 262.56,54.21 263.91,54.04 265.27,53.88 266.63,53.71 267.99,53.55 269.34,53.39 270.70,53.23 272.06,53.07 273.42,52.92 274.79,52.77 276.15,52.62 277.51,52.47 278.87,52.32 280.24,52.18 281.60,52.03 282.97,51.89 284.34,51.75 285.71,51.62 287.07,51.48 288.44,51.35 289.81,51.21 291.18,51.08 292.56,50.95 293.93,50.83 295.30,50.70 296.68,50.58 298.05,50.46 299.43,50.34 300.80,50.22 302.18,50.10 303.56,49.98 304.94,49.87 306.32,49.75 307.70,49.64 309.08,49.53 310.46,49.42 311.84,49.32 313.23,49.21 314.61,49.11 315.99,49.00 317.38,48.90 318.77,48.80 320.15,48.70 321.54,48.61 322.93,48.51 324.32,48.42 325.71,48.32 327.10,48.23 328.50,48.14 329.89,48.05 331.28,47.96 332.68,47.88 334.07,47.79 335.47,47.71 336.87,47.62 338.26,47.54 339.66,47.46 341.06,47.38 342.46,47.30 343.86,47.23 345.27,47.15 346.67,47.07 348.07,47.00 349.48,46.93 350.88,46.86 352.29,46.79 353.69,46.72 355.10,46.65 356.51,46.58 357.92,46.51 359.33,46.45 360.74,46.39 362.15,46.32 363.56,46.26 364.98,46.20 366.39,46.14 367.81,46.08 369.22,46.02 370.64,45.97 372.06,45.91 373.47,45.86 374.89,45.80 376.31,45.75 377.73,45.70 379.16,45.65 380.58,45.60 382.00,45.55 383.43,45.50 384.85,45.45 386.28,45.40 387.70,45.36 389.13,45.31 390.56,45.27 391.99,45.23 393.42,45.18 394.85,45.14 396.28,45.10 397.71,45.06 399.14,45.02 400.58,44.99 402.01,44.95 403.45,44.91 404.89,44.88 406.32,44.84 407.76,44.81 409.20,44.78 410.64,44.74 412.08,44.71 413.52,44.68 414.96,44.65 416.41,44.62 417.85,44.60 419.30,44.57 420.74,44.54 422.19,44.51 423.64,44.49 425.08,44.46 426.53,44.44 427.98,44.42 429.43,44.40 430.89,44.37 432.34,44.35 433.79,44.33 435.25,44.31 436.70,44.29 438.16,44.28 439.61,44.26 441.07,44.24 442.53,44.22 443.99,44.21 445.45,44.19 446.91,44.18 448.37,44.17 449.83,44.15 451.30,44.14 452.76,44.13 454.23,44.12 455.69,44.11 457.16,44.10 458.63,44.09 460.10,44.08 461.57,44.07 463.04,44.07 464.51,44.06 465.98,44.05 467.45,44.05 468.93,44.04 470.40,44.04 471.88,44.04 473.36,44.03 474.83,44.03 476.31,44.03 477.79,44.03 479.27,44.03 480.75,44.03 482.23,44.03 482.23,44.03 483.12,44.04 484.01,44.07 484.90,44.11 485.78,44.17 486.67,44.23 487.56,44.31 488.45,44.39 489.33,44.49 490.22,44.59 491.11,44.70 492.00,44.82 492.88,44.95 493.77,45.08 494.66,45.22 495.55,45.37 496.43,45.53 497.32,45.69 498.21,45.86 499.10,46.03 499.98,46.22 500.87,46.41 501.76,46.60 502.65,46.81 503.54,47.01 504.42,47.23 505.31,47.45 506.20,47.68 507.09,47.91 507.97,48.15 508.86,48.39 509.75,48.64 510.64,48.90 511.52,49.16 512.41,49.43 513.30,49.70 514.19,49.98 515.07,50.26 515.96,50.55 516.85,50.85 517.74,51.15 518.62,51.45 519.51,51.76 520.40,52.08 521.29,52.40 522.17,52.72 523.06,53.06 523.95,53.39 524.84,53.73 525.73,54.08 526.61,54.43 527.50,54.79 528.39,55.15 529.28,55.51 530.16,55.89 531.05,56.26 531.94,56.64 532.83,57.03 533.71,57.42 534.60,57.81 535.49,58.21 536.38,58.62 537.26,59.02 538.15,59.44 539.04,59.86 539.93,60.28 540.81,60.71 541.70,61.14 542.59,61.57 543.48,62.02 544.36,62.46 545.25,62.91 546.14,63.37 547.03,63.82 547.92,64.29 548.80,64.76 549.69,65.23 550.58,65.70 551.47,66.18 552.35,66.67 553.24,67.16 554.13,67.65 555.02,68.15 555.90,68.65 556.79,69.16 557.68,69.67 558.57,70.19 559.45,70.70 560.34,71.23 561.23,71.76 562.12,72.29 563.00,72.82 563.89,73.36 564.78,73.91 565.67,74.46 566.55,75.01 567.44,75.56 568.33,76.12 569.22,76.69 570.11,77.26 570.99,77.83 571.88,78.41 572.77,78.99 573.66,79.57 574.54,80.16 575.43,80.75 576.32,81.35 577.21,81.95 578.09,82.56 578.98,83.16 579.87,83.78 580.76,84.39 581.64,85.01 582.53,85.64 583.42,86.26 584.31,86.90 585.19,87.53 586.08,88.17 586.97,88.82 587.86,89.46" fill="none" stroke="#D07A3B" stroke-width="2.4"></polyline><text x="612.7" y="93.5" fill="#D07A3B" font-size="11" font-family="IBM Plex Mono, ui-monospace, monospace">100 /s</text><polyline points="73.50,153.89 74.89,146.45 76.25,140.22 77.60,134.85 78.94,130.11 80.26,125.87 81.58,122.03 82.89,118.51 84.20,115.26 85.51,112.24 86.81,109.43 88.11,106.78 89.40,104.30 90.70,101.94 91.99,99.71 93.28,97.59 94.57,95.57 95.86,93.64 97.15,91.79 98.44,90.02 99.72,88.31 101.01,86.68 102.30,85.10 103.58,83.58 104.87,82.11 106.15,80.69 107.44,79.31 108.72,77.98 110.01,76.69 111.29,75.43 112.58,74.22 113.86,73.03 115.15,71.88 116.43,70.77 117.72,69.68 119.01,68.62 120.29,67.58 121.58,66.57 122.86,65.59 124.15,64.63 125.44,63.69 126.73,62.77 128.02,61.88 129.30,61.00 130.59,60.14 131.88,59.30 133.17,58.48 134.46,57.68 135.75,56.89 137.04,56.12 138.33,55.37 139.63,54.62 140.92,53.90 142.21,53.18 143.51,52.49 144.80,51.80 146.09,51.13 147.39,50.47 148.68,49.82 149.98,49.18 151.28,48.55 152.57,47.94 153.87,47.33 155.17,46.74 156.47,46.15 157.77,45.58 159.07,45.02 160.37,44.46 161.67,43.91 162.97,43.38 164.28,42.85 165.58,42.33 166.88,41.82 168.19,41.31 169.49,40.82 170.80,40.33 172.11,39.85 173.41,39.37 174.72,38.91 176.03,38.45 177.34,38.00 178.65,37.55 179.96,37.11 181.27,36.68 182.58,36.25 183.89,35.83 185.20,35.42 186.52,35.01 187.83,34.61 189.15,34.21 190.46,33.82 191.78,33.43 193.10,33.05 194.41,32.68 195.73,32.31 197.05,31.94 198.37,31.59 199.69,31.23 201.01,30.88 202.33,30.54 203.66,30.20 204.98,29.86 206.30,29.53 207.63,29.20 208.95,28.88 210.28,28.56 211.60,28.25 212.93,27.94 214.26,27.63 215.59,27.33 216.92,27.03 218.25,26.74 219.58,26.45 220.91,26.16 222.24,25.88 223.58,25.60 224.91,25.33 226.25,25.05 227.58,24.78 228.92,24.52 230.25,24.26 231.59,24.00 232.93,23.75 234.27,23.49 235.61,23.25 236.95,23.00 238.29,22.76 239.63,22.52 240.97,22.28 242.32,22.05 243.66,21.82 245.01,21.59 246.35,21.37 247.70,21.15 249.05,20.93 250.39,20.71 251.74,20.50 253.09,20.29 254.44,20.08 255.79,19.87 257.14,19.67 258.50,19.47 259.85,19.27 261.20,19.08 262.56,18.89 263.91,18.70 265.27,18.51 266.63,18.32 267.99,18.14 269.34,17.96 270.70,17.78 272.06,17.60 273.42,17.43 274.79,17.26 276.15,17.09 277.51,16.92 278.87,16.75 280.24,16.59 281.60,16.43 282.97,16.27 284.34,16.11 285.71,15.96 287.07,15.80 288.44,15.65 289.81,15.50 291.18,15.36 292.56,15.21 293.93,15.07 295.30,14.92 296.68,14.78 298.05,14.65 299.43,14.51 300.80,14.38 302.18,14.24 303.56,14.11 304.94,13.98 306.32,13.85 307.70,13.73 309.08,13.60 310.46,13.48 311.84,13.36 313.23,13.24 314.61,13.12 315.99,13.01 317.38,12.89 318.77,12.78 320.15,12.67 321.54,12.56 322.93,12.45 324.32,12.34 325.71,12.24 327.10,12.13 328.50,12.03 329.89,11.93 331.28,11.83 332.68,11.73 334.07,11.64 335.47,11.54 336.87,11.45 338.26,11.36 339.66,11.26 341.06,11.17 342.46,11.09 343.86,11.00 345.27,10.91 346.67,10.83 348.07,10.74 349.48,10.66 350.88,10.58 352.29,10.50 353.69,10.42 355.10,10.35 356.51,10.27 357.92,10.20 359.33,10.12 360.74,10.05 362.15,9.98 363.56,9.91 364.98,9.84 366.39,9.77 367.81,9.71 369.22,9.64 370.64,9.58 372.06,9.51 373.47,9.45 374.89,9.39 376.31,9.33 377.73,9.27 379.16,9.21 380.58,9.16 382.00,9.10 383.43,9.05 384.85,8.99 386.28,8.94 387.70,8.89 389.13,8.84 390.56,8.79 391.99,8.74 393.42,8.69 394.85,8.65 396.28,8.60 397.71,8.56 399.14,8.51 400.58,8.47 402.01,8.43 403.45,8.39 404.89,8.35 406.32,8.31 407.76,8.27 409.20,8.23 410.64,8.20 412.08,8.16 413.52,8.13 414.96,8.09 416.41,8.06 417.85,8.03 419.30,8.00 420.74,7.97 422.19,7.94 423.64,7.91 425.08,7.88 426.53,7.86 427.98,7.83 429.43,7.80 430.89,7.78 432.34,7.76 433.79,7.73 435.25,7.71 436.70,7.69 438.16,7.67 439.61,7.65 441.07,7.63 442.53,7.61 443.99,7.59 445.45,7.58 446.91,7.56 448.37,7.55 449.83,7.53 451.30,7.52 452.76,7.50 454.23,7.49 455.69,7.48 457.16,7.47 458.63,7.46 460.10,7.45 461.57,7.44 463.04,7.43 464.51,7.43 465.98,7.42 467.45,7.41 468.93,7.41 470.40,7.40 471.88,7.40 473.36,7.39 474.83,7.39 476.31,7.39 477.79,7.39 479.27,7.39 480.75,7.39 482.23,7.39 482.23,7.39 483.12,7.40 484.01,7.44 484.90,7.49 485.78,7.55 486.67,7.62 487.56,7.71 488.45,7.80 489.33,7.91 490.22,8.02 491.11,8.15 492.00,8.28 492.88,8.43 493.77,8.58 494.66,8.74 495.55,8.90 496.43,9.08 497.32,9.26 498.21,9.46 499.10,9.65 499.98,9.86 500.87,10.08 501.76,10.30 502.65,10.52 503.54,10.76 504.42,11.00 505.31,11.25 506.20,11.51 507.09,11.77 507.97,12.04 508.86,12.32 509.75,12.60 510.64,12.89 511.52,13.18 512.41,13.49 513.30,13.79 514.19,14.11 515.07,14.43 515.96,14.75 516.85,15.09 517.74,15.43 518.62,15.77 519.51,16.12 520.40,16.48 521.29,16.84 522.17,17.21 523.06,17.58 523.95,17.96 524.84,18.35 525.73,18.74 526.61,19.13 527.50,19.54 528.39,19.94 529.28,20.36 530.16,20.78 531.05,21.20 531.94,21.63 532.83,22.06 533.71,22.51 534.60,22.95 535.49,23.40 536.38,23.86 537.26,24.32 538.15,24.79 539.04,25.26 539.93,25.74 540.81,26.22 541.70,26.71 542.59,27.20 543.48,27.70 544.36,28.20 545.25,28.71 546.14,29.22 547.03,29.74 547.92,30.26 548.80,30.79 549.69,31.32 550.58,31.86 551.47,32.40 552.35,32.95 553.24,33.50 554.13,34.06 555.02,34.62 555.90,35.19 556.79,35.76 557.68,36.34 558.57,36.92 559.45,37.51 560.34,38.10 561.23,38.69 562.12,39.29 563.00,39.90 563.89,40.51 564.78,41.12 565.67,41.74 566.55,42.37 567.44,42.99 568.33,43.63 569.22,44.26 570.11,44.91 570.99,45.55 571.88,46.20 572.77,46.86 573.66,47.52 574.54,48.18 575.43,48.85 576.32,49.53 577.21,50.20 578.09,50.89 578.98,51.57 579.87,52.27 580.76,52.96 581.64,53.66 582.53,54.37 583.42,55.08 584.31,55.79 585.19,56.51 586.08,57.23 586.97,57.95 587.86,58.69" fill="none" stroke="#C4402B" stroke-width="2.4"></polyline><text x="612.7" y="62.7" fill="#C4402B" font-size="11" font-family="IBM Plex Mono, ui-monospace, monospace">500 /s</text><text x="78" y="46" font-family="IBM Plex Sans KR, sans-serif" font-size="11.5" fill="currentColor" fill-opacity=".62">Cowper-Symonds:  σ_d/σ_s = 1 + (ε̇/C)^(1/p),  C = 6844 /s, p = 3.91</text><text x="650.0" y="364" text-anchor="end" fill="currentColor" fill-opacity=".62" font-size="11.5" font-family="IBM Plex Mono, ui-monospace, monospace">공칭 변형률</text><text x="6" y="18" fill="currentColor" fill-opacity=".62" font-size="11.5" font-family="IBM Plex Mono, ui-monospace, monospace">공칭 응력 [MPa]</text></svg>