<svg xmlns="http://www.w3.org/2000/svg" viewBox="0 0 800 410" role="img" aria-label="순간 열팽창계수는 유리전이에서 계단처럼 뛰지만 할선 열팽창계수는 완만하게 올라가 같은 온도에서 값이 두 배 이상 차이나는 모습" style="width:100%;height:auto;overflow:visible"><defs><marker id="m_ah" viewBox="0 0 10 10" refX="9" refY="5" markerWidth="7" markerHeight="7" orient="auto-start-reverse"><path d="M0,0 L10,5 L0,10 z" fill="currentColor"></path></marker></defs><line x1="86.0" y1="26" x2="86.0" y2="326" stroke="currentColor" stroke-opacity=".13" stroke-width="1"></line><text x="86.0" y="344" text-anchor="middle" fill="currentColor" fill-opacity=".62" font-size="11.5" font-family="IBM Plex Mono, ui-monospace, monospace">25</text><line x1="206.4" y1="26" x2="206.4" y2="326" stroke="currentColor" stroke-opacity=".13" stroke-width="1"></line><text x="206.4" y="344" text-anchor="middle" fill="currentColor" fill-opacity=".62" font-size="11.5" font-family="IBM Plex Mono, ui-monospace, monospace">75</text><line x1="326.9" y1="26" x2="326.9" y2="326" stroke="currentColor" stroke-opacity=".13" stroke-width="1"></line><text x="326.9" y="344" text-anchor="middle" fill="currentColor" fill-opacity=".62" font-size="11.5" font-family="IBM Plex Mono, ui-monospace, monospace">125</text><line x1="447.3" y1="26" x2="447.3" y2="326" stroke="currentColor" stroke-opacity=".13" stroke-width="1"></line><text x="447.3" y="344" text-anchor="middle" fill="currentColor" fill-opacity=".62" font-size="11.5" font-family="IBM Plex Mono, ui-monospace, monospace">175</text><line x1="567.7" y1="26" x2="567.7" y2="326" stroke="currentColor" stroke-opacity=".13" stroke-width="1"></line><text x="567.7" y="344" text-anchor="middle" fill="currentColor" fill-opacity=".62" font-size="11.5" font-family="IBM Plex Mono, ui-monospace, monospace">225</text><line x1="652.0" y1="26" x2="652.0" y2="326" stroke="currentColor" stroke-opacity=".13" stroke-width="1"></line><text x="652.0" y="344" text-anchor="middle" fill="currentColor" fill-opacity=".62" font-size="11.5" font-family="IBM Plex Mono, ui-monospace, monospace">260</text><line x1="74" y1="326.0" x2="664" y2="326.0" stroke="currentColor" stroke-opacity=".13" stroke-width="1"></line><text x="65" y="330.0" text-anchor="end" fill="currentColor" fill-opacity=".62" font-size="11.5" font-family="IBM Plex Mono, ui-monospace, monospace">0</text><line x1="74" y1="272.4" x2="664" y2="272.4" stroke="currentColor" stroke-opacity=".13" stroke-width="1"></line><text x="65" y="276.4" text-anchor="end" fill="currentColor" fill-opacity=".62" font-size="11.5" font-family="IBM Plex Mono, ui-monospace, monospace">50</text><line x1="74" y1="218.9" x2="664" y2="218.9" stroke="currentColor" stroke-opacity=".13" stroke-width="1"></line><text x="65" y="222.9" text-anchor="end" fill="currentColor" fill-opacity=".62" font-size="11.5" font-family="IBM Plex Mono, ui-monospace, monospace">100</text><line x1="74" y1="165.3" x2="664" y2="165.3" stroke="currentColor" stroke-opacity=".13" stroke-width="1"></line><text x="65" y="169.3" text-anchor="end" fill="currentColor" fill-opacity=".62" font-size="11.5" font-family="IBM Plex Mono, ui-monospace, monospace">150</text><line x1="74" y1="111.7" x2="664" y2="111.7" stroke="currentColor" stroke-opacity=".13" stroke-width="1"></line><text x="65" y="115.7" text-anchor="end" fill="currentColor" fill-opacity=".62" font-size="11.5" font-family="IBM Plex Mono, ui-monospace, monospace">200</text><line x1="74" y1="58.1" x2="664" y2="58.1" stroke="currentColor" stroke-opacity=".13" stroke-width="1"></line><text x="65" y="62.1" text-anchor="end" fill="currentColor" fill-opacity=".62" font-size="11.5" font-family="IBM Plex Mono, ui-monospace, monospace">250</text><rect x="74" y="26" width="590" height="300" fill="none" stroke="currentColor" stroke-opacity=".35" stroke-width="1"></rect><polyline points="86.04,272.43 87.46,272.43 88.88,272.43 90.30,272.43 91.71,272.43 93.13,272.43 94.55,272.43 95.97,272.43 97.39,272.43 98.81,272.43 100.22,272.43 101.64,272.43 103.06,272.43 104.48,272.43 105.90,272.43 107.32,272.43 108.73,272.43 110.15,272.43 111.57,272.43 112.99,272.43 114.41,272.43 115.83,272.43 117.24,272.43 118.66,272.43 120.08,272.43 121.50,272.43 122.92,272.43 124.34,272.43 125.75,272.43 127.17,272.43 128.59,272.43 130.01,272.43 131.43,272.43 132.85,272.43 134.26,272.43 135.68,272.43 137.10,272.43 138.52,272.43 139.94,272.42 141.36,272.42 142.77,272.42 144.19,272.42 145.61,272.42 147.03,272.42 148.45,272.42 149.87,272.42 151.28,272.42 152.70,272.42 154.12,272.42 155.54,272.42 156.96,272.42 158.38,272.42 159.79,272.42 161.21,272.42 162.63,272.42 164.05,272.42 165.47,272.41 166.89,272.41 168.30,272.41 169.72,272.41 171.14,272.41 172.56,272.41 173.98,272.41 175.40,272.40 176.81,272.40 178.23,272.40 179.65,272.40 181.07,272.40 182.49,272.39 183.91,272.39 185.32,272.39 186.74,272.39 188.16,272.38 189.58,272.38 191.00,272.38 192.42,272.37 193.83,272.37 195.25,272.36 196.67,272.36 198.09,272.35 199.51,272.35 200.93,272.34 202.34,272.33 203.76,272.33 205.18,272.32 206.60,272.31 208.02,272.30 209.44,272.29 210.85,272.28 212.27,272.27 213.69,272.26 215.11,272.24 216.53,272.23 217.95,272.21 219.36,272.20 220.78,272.18 222.20,272.16 223.62,272.14 225.04,272.12 226.46,272.09 227.87,272.07 229.29,272.04 230.71,272.01 232.13,271.98 233.55,271.95 234.97,271.91 236.39,271.87 237.80,271.83 239.22,271.78 240.64,271.73 242.06,271.68 243.48,271.62 244.90,271.56 246.31,271.49 247.73,271.42 249.15,271.35 250.57,271.26 251.99,271.18 253.41,271.08 254.82,270.98 256.24,270.87 257.66,270.75 259.08,270.62 260.50,270.49 261.92,270.34 263.33,270.18 264.75,270.01 266.17,269.83 267.59,269.63 269.01,269.42 270.43,269.20 271.84,268.95 273.26,268.69 274.68,268.41 276.10,268.11 277.52,267.79 278.94,267.44 280.35,267.07 281.77,266.67 283.19,266.25 284.61,265.79 286.03,265.30 287.45,264.77 288.86,264.21 290.28,263.61 291.70,262.97 293.12,262.28 294.54,261.54 295.96,260.76 297.37,259.92 298.79,259.02 300.21,258.06 301.63,257.05 303.05,255.96 304.47,254.81 305.88,253.58 307.30,252.27 308.72,250.89 310.14,249.42 311.56,247.86 312.98,246.22 314.39,244.47 315.81,242.63 317.23,240.70 318.65,238.65 320.07,236.51 321.49,234.25 322.90,231.89 324.32,229.41 325.74,226.82 327.16,224.12 328.58,221.31 330.00,218.39 331.41,215.36 332.83,212.23 334.25,208.99 335.67,205.66 337.09,202.23 338.51,198.71 339.92,195.11 341.34,191.43 342.76,187.69 344.18,183.89 345.60,180.04 347.02,176.16 348.43,172.24 349.85,168.31 351.27,164.36 352.69,160.42 354.11,156.49 355.53,152.59 356.94,148.72 358.36,144.89 359.78,141.12 361.20,137.41 362.62,133.77 364.04,130.21 365.45,126.73 366.87,123.34 368.29,120.05 369.71,116.86 371.13,113.78 372.55,110.80 373.96,107.93 375.38,105.17 376.80,102.52 378.22,99.99 379.64,97.57 381.06,95.25 382.47,93.05 383.89,90.95 385.31,88.96 386.73,87.06 388.15,85.27 389.57,83.57 390.98,81.97 392.40,80.45 393.82,79.03 395.24,77.68 396.66,76.41 398.08,75.22 399.49,74.09 400.91,73.04 402.33,72.05 403.75,71.13 405.17,70.26 406.59,69.44 408.00,68.68 409.42,67.97 410.84,67.30 412.26,66.67 413.68,66.09 415.10,65.55 416.51,65.04 417.93,64.56 419.35,64.12 420.77,63.71 422.19,63.32 423.61,62.96 425.02,62.63 426.44,62.32 427.86,62.02 429.28,61.75 430.70,61.50 432.12,61.27 433.53,61.05 434.95,60.84 436.37,60.65 437.79,60.48 439.21,60.31 440.63,60.16 442.04,60.02 443.46,59.89 444.88,59.76 446.30,59.65 447.72,59.54 449.14,59.45 450.55,59.35 451.97,59.27 453.39,59.19 454.81,59.11 456.23,59.05 457.65,58.98 459.06,58.92 460.48,58.87 461.90,58.82 463.32,58.77 464.74,58.72 466.16,58.68 467.57,58.64 468.99,58.61 470.41,58.58 471.83,58.55 473.25,58.52 474.67,58.49 476.08,58.47 477.50,58.44 478.92,58.42 480.34,58.40 481.76,58.38 483.18,58.37 484.59,58.35 486.01,58.34 487.43,58.32 488.85,58.31 490.27,58.30 491.69,58.29 493.10,58.28 494.52,58.27 495.94,58.26 497.36,58.25 498.78,58.24 500.20,58.24 501.61,58.23 503.03,58.22 504.45,58.22 505.87,58.21 507.29,58.21 508.71,58.20 510.13,58.20 511.54,58.19 512.96,58.19 514.38,58.19 515.80,58.18 517.22,58.18 518.64,58.18 520.05,58.18 521.47,58.17 522.89,58.17 524.31,58.17 525.73,58.17 527.15,58.17 528.56,58.16 529.98,58.16 531.40,58.16 532.82,58.16 534.24,58.16 535.66,58.16 537.07,58.16 538.49,58.16 539.91,58.15 541.33,58.15 542.75,58.15 544.17,58.15 545.58,58.15 547.00,58.15 548.42,58.15 549.84,58.15 551.26,58.15 552.68,58.15 554.09,58.15 555.51,58.15 556.93,58.15 558.35,58.15 559.77,58.15 561.19,58.15 562.60,58.15 564.02,58.15 565.44,58.15 566.86,58.15 568.28,58.15 569.70,58.15 571.11,58.15 572.53,58.15 573.95,58.14 575.37,58.14 576.79,58.14 578.21,58.14 579.62,58.14 581.04,58.14 582.46,58.14 583.88,58.14 585.30,58.14 586.72,58.14 588.13,58.14 589.55,58.14 590.97,58.14 592.39,58.14 593.81,58.14 595.23,58.14 596.64,58.14 598.06,58.14 599.48,58.14 600.90,58.14 602.32,58.14 603.74,58.14 605.15,58.14 606.57,58.14 607.99,58.14 609.41,58.14 610.83,58.14 612.25,58.14 613.66,58.14 615.08,58.14 616.50,58.14 617.92,58.14 619.34,58.14 620.76,58.14 622.17,58.14 623.59,58.14 625.01,58.14 626.43,58.14 627.85,58.14 629.27,58.14 630.68,58.14 632.10,58.14 633.52,58.14 634.94,58.14 636.36,58.14 637.78,58.14 639.19,58.14 640.61,58.14 642.03,58.14 643.45,58.14 644.87,58.14 646.29,58.14 647.70,58.14 649.12,58.14 650.54,58.14 651.96,58.14" fill="none" stroke="#2F6FC4" stroke-width="2.8"></polyline><polyline points="86.04,272.43 87.46,272.43 88.88,272.43 90.30,272.43 91.71,272.43 93.13,272.43 94.55,272.43 95.97,272.43 97.39,272.43 98.81,272.43 100.22,272.43 101.64,272.43 103.06,272.43 104.48,272.43 105.90,272.43 107.32,272.43 108.73,272.43 110.15,272.43 111.57,272.43 112.99,272.43 114.41,272.43 115.83,272.43 117.24,272.43 118.66,272.43 120.08,272.43 121.50,272.43 122.92,272.43 124.34,272.43 125.75,272.43 127.17,272.43 128.59,272.43 130.01,272.43 131.43,272.43 132.85,272.43 134.26,272.43 135.68,272.43 137.10,272.43 138.52,272.43 139.94,272.43 141.36,272.43 142.77,272.43 144.19,272.43 145.61,272.43 147.03,272.43 148.45,272.43 149.87,272.43 151.28,272.43 152.70,272.43 154.12,272.43 155.54,272.43 156.96,272.43 158.38,272.43 159.79,272.43 161.21,272.43 162.63,272.43 164.05,272.43 165.47,272.43 166.89,272.43 168.30,272.42 169.72,272.42 171.14,272.42 172.56,272.42 173.98,272.42 175.40,272.42 176.81,272.42 178.23,272.42 179.65,272.42 181.07,272.42 182.49,272.42 183.91,272.42 185.32,272.42 186.74,272.42 188.16,272.42 189.58,272.42 191.00,272.42 192.42,272.42 193.83,272.42 195.25,272.42 196.67,272.42 198.09,272.42 199.51,272.41 200.93,272.41 202.34,272.41 203.76,272.41 205.18,272.41 206.60,272.41 208.02,272.41 209.44,272.41 210.85,272.41 212.27,272.40 213.69,272.40 215.11,272.40 216.53,272.40 217.95,272.40 219.36,272.40 220.78,272.39 222.20,272.39 223.62,272.39 225.04,272.39 226.46,272.38 227.87,272.38 229.29,272.38 230.71,272.37 232.13,272.37 233.55,272.37 234.97,272.36 236.39,272.36 237.80,272.35 239.22,272.35 240.64,272.34 242.06,272.34 243.48,272.33 244.90,272.32 246.31,272.32 247.73,272.31 249.15,272.30 250.57,272.29 251.99,272.28 253.41,272.27 254.82,272.26 256.24,272.25 257.66,272.24 259.08,272.23 260.50,272.21 261.92,272.20 263.33,272.18 264.75,272.17 266.17,272.15 267.59,272.13 269.01,272.11 270.43,272.09 271.84,272.07 273.26,272.04 274.68,272.01 276.10,271.99 277.52,271.96 278.94,271.92 280.35,271.89 281.77,271.85 283.19,271.82 284.61,271.77 286.03,271.73 287.45,271.68 288.86,271.63 290.28,271.58 291.70,271.52 293.12,271.46 294.54,271.40 295.96,271.33 297.37,271.25 298.79,271.17 300.21,271.09 301.63,271.00 303.05,270.91 304.47,270.81 305.88,270.70 307.30,270.59 308.72,270.46 310.14,270.34 311.56,270.20 312.98,270.05 314.39,269.90 315.81,269.74 317.23,269.57 318.65,269.38 320.07,269.19 321.49,268.99 322.90,268.77 324.32,268.55 325.74,268.31 327.16,268.06 328.58,267.79 330.00,267.51 331.41,267.22 332.83,266.91 334.25,266.59 335.67,266.25 337.09,265.90 338.51,265.53 339.92,265.15 341.34,264.75 342.76,264.34 344.18,263.90 345.60,263.46 347.02,262.99 348.43,262.51 349.85,262.02 351.27,261.51 352.69,260.98 354.11,260.44 355.53,259.88 356.94,259.31 358.36,258.72 359.78,258.12 361.20,257.51 362.62,256.88 364.04,256.25 365.45,255.60 366.87,254.94 368.29,254.27 369.71,253.59 371.13,252.90 372.55,252.20 373.96,251.50 375.38,250.79 376.80,250.07 378.22,249.35 379.64,248.62 381.06,247.89 382.47,247.16 383.89,246.42 385.31,245.68 386.73,244.93 388.15,244.19 389.57,243.44 390.98,242.69 392.40,241.94 393.82,241.20 395.24,240.45 396.66,239.70 398.08,238.96 399.49,238.22 400.91,237.47 402.33,236.73 403.75,236.00 405.17,235.26 406.59,234.53 408.00,233.80 409.42,233.08 410.84,232.35 412.26,231.63 413.68,230.92 415.10,230.21 416.51,229.50 417.93,228.80 419.35,228.10 420.77,227.40 422.19,226.71 423.61,226.02 425.02,225.34 426.44,224.66 427.86,223.99 429.28,223.32 430.70,222.65 432.12,221.99 433.53,221.33 434.95,220.68 436.37,220.03 437.79,219.39 439.21,218.75 440.63,218.12 442.04,217.49 443.46,216.86 444.88,216.24 446.30,215.63 447.72,215.01 449.14,214.41 450.55,213.80 451.97,213.20 453.39,212.61 454.81,212.02 456.23,211.43 457.65,210.85 459.06,210.27 460.48,209.70 461.90,209.13 463.32,208.57 464.74,208.01 466.16,207.45 467.57,206.90 468.99,206.35 470.41,205.80 471.83,205.26 473.25,204.72 474.67,204.19 476.08,203.66 477.50,203.13 478.92,202.61 480.34,202.09 481.76,201.58 483.18,201.07 484.59,200.56 486.01,200.05 487.43,199.55 488.85,199.05 490.27,198.56 491.69,198.07 493.10,197.58 494.52,197.10 495.94,196.62 497.36,196.14 498.78,195.67 500.20,195.20 501.61,194.73 503.03,194.27 504.45,193.80 505.87,193.35 507.29,192.89 508.71,192.44 510.13,191.99 511.54,191.54 512.96,191.10 514.38,190.66 515.80,190.22 517.22,189.79 518.64,189.36 520.05,188.93 521.47,188.50 522.89,188.08 524.31,187.66 525.73,187.24 527.15,186.83 528.56,186.42 529.98,186.01 531.40,185.60 532.82,185.19 534.24,184.79 535.66,184.39 537.07,184.00 538.49,183.60 539.91,183.21 541.33,182.82 542.75,182.43 544.17,182.05 545.58,181.66 547.00,181.28 548.42,180.91 549.84,180.53 551.26,180.16 552.68,179.79 554.09,179.42 555.51,179.05 556.93,178.69 558.35,178.33 559.77,177.97 561.19,177.61 562.60,177.25 564.02,176.90 565.44,176.55 566.86,176.20 568.28,175.85 569.70,175.51 571.11,175.16 572.53,174.82 573.95,174.48 575.37,174.15 576.79,173.81 578.21,173.48 579.62,173.15 581.04,172.82 582.46,172.49 583.88,172.16 585.30,171.84 586.72,171.52 588.13,171.20 589.55,170.88 590.97,170.56 592.39,170.25 593.81,169.93 595.23,169.62 596.64,169.31 598.06,169.01 599.48,168.70 600.90,168.39 602.32,168.09 603.74,167.79 605.15,167.49 606.57,167.19 607.99,166.90 609.41,166.60 610.83,166.31 612.25,166.02 613.66,165.73 615.08,165.44 616.50,165.15 617.92,164.87 619.34,164.58 620.76,164.30 622.17,164.02 623.59,163.74 625.01,163.46 626.43,163.19 627.85,162.91 629.27,162.64 630.68,162.36 632.10,162.09 633.52,161.82 634.94,161.56 636.36,161.29 637.78,161.03 639.19,160.76 640.61,160.50 642.03,160.24 643.45,159.98 644.87,159.72 646.29,159.46 647.70,159.21 649.12,158.95 650.54,158.70 651.96,158.45" fill="none" stroke="#D07A3B" stroke-width="2.6"></polyline><text x="507.5" y="46.2" fill="#2F6FC4" font-size="12.5" font-family="IBM Plex Mono, ui-monospace, monospace">순간 α (tangent)</text><text x="543.6" y="204.2" fill="#D07A3B" font-size="12.5" font-family="IBM Plex Mono, ui-monospace, monospace">할선 α (secant, 25 °C 기준)</text><line x1="459.3" y1="58.9" x2="459.3" y2="210.2" stroke="currentColor" stroke-opacity=".6" stroke-width="1.4" marker-start="url(#m_ah)" marker-end="url(#m_ah)"></line><text x="449.3" y="134.5" text-anchor="end" font-size="12" font-family="IBM Plex Mono, ui-monospace, monospace" fill="currentColor" fill-opacity=".75">249 vs 108</text><text x="449.3" y="150.5" text-anchor="end" font-family="IBM Plex Sans KR, sans-serif" font-size="11" fill="currentColor" fill-opacity=".6">180 °C에서 2.3배</text><line x1="350.9" y1="26" x2="350.9" y2="326" stroke="currentColor" stroke-opacity=".3" stroke-width="1.1" stroke-dasharray="4 4"></line><text x="357.9" y="42" fill="currentColor" fill-opacity=".62" font-size="11.5" font-family="IBM Plex Mono, ui-monospace, monospace">Tg</text><text x="664.0" y="362" text-anchor="end" fill="currentColor" fill-opacity=".62" font-size="11.5" font-family="IBM Plex Mono, ui-monospace, monospace">온도 [°C]</text><text x="6" y="18" fill="currentColor" fill-opacity=".62" font-size="11.5" font-family="IBM Plex Mono, ui-monospace, monospace">CTE [ppm/K]</text></svg>