<svg viewBox="0 0 820 400" role="img" aria-label="선형 포물선 로그 세 가지 부식 속도 법칙이 장기 예측에서 크게 갈라지는 모습" style="width:100%;height:auto;overflow:visible"><defs><marker id="wr_ah" viewBox="0 0 10 10" refX="9" refY="5" markerWidth="7" markerHeight="7" orient="auto-start-reverse"><path d="M0,0 L10,5 L0,10 z" fill="currentColor"></path></marker><marker id="wr_as" viewBox="0 0 10 10" refX="9" refY="5" markerWidth="6" markerHeight="6" orient="auto-start-reverse"><path d="M0,0 L10,5 L0,10 z" fill="currentColor" fill-opacity=".55"></path></marker></defs><line x1="74.0" y1="30" x2="74.0" y2="326" stroke="currentColor" stroke-opacity=".13" stroke-width="1"></line><text x="74.0" y="344" text-anchor="middle" fill="currentColor" fill-opacity=".62" font-size="11.5" font-family="IBM Plex Mono, ui-monospace, monospace">0</text><line x1="186.0" y1="30" x2="186.0" y2="326" stroke="currentColor" stroke-opacity=".13" stroke-width="1"></line><text x="186.0" y="344" text-anchor="middle" fill="currentColor" fill-opacity=".62" font-size="11.5" font-family="IBM Plex Mono, ui-monospace, monospace">2</text><line x1="298.0" y1="30" x2="298.0" y2="326" stroke="currentColor" stroke-opacity=".13" stroke-width="1"></line><text x="298.0" y="344" text-anchor="middle" fill="currentColor" fill-opacity=".62" font-size="11.5" font-family="IBM Plex Mono, ui-monospace, monospace">4</text><line x1="410.0" y1="30" x2="410.0" y2="326" stroke="currentColor" stroke-opacity=".13" stroke-width="1"></line><text x="410.0" y="344" text-anchor="middle" fill="currentColor" fill-opacity=".62" font-size="11.5" font-family="IBM Plex Mono, ui-monospace, monospace">6</text><line x1="522.0" y1="30" x2="522.0" y2="326" stroke="currentColor" stroke-opacity=".13" stroke-width="1"></line><text x="522.0" y="344" text-anchor="middle" fill="currentColor" fill-opacity=".62" font-size="11.5" font-family="IBM Plex Mono, ui-monospace, monospace">8</text><line x1="634.0" y1="30" x2="634.0" y2="326" stroke="currentColor" stroke-opacity=".13" stroke-width="1"></line><text x="634.0" y="344" text-anchor="middle" fill="currentColor" fill-opacity=".62" font-size="11.5" font-family="IBM Plex Mono, ui-monospace, monospace">10</text><line x1="74" y1="326.0" x2="634" y2="326.0" stroke="currentColor" stroke-opacity=".13" stroke-width="1"></line><text x="65" y="330.0" text-anchor="end" fill="currentColor" fill-opacity=".62" font-size="11.5" font-family="IBM Plex Mono, ui-monospace, monospace">0</text><line x1="74" y1="258.7" x2="634" y2="258.7" stroke="currentColor" stroke-opacity=".13" stroke-width="1"></line><text x="65" y="262.7" text-anchor="end" fill="currentColor" fill-opacity=".62" font-size="11.5" font-family="IBM Plex Mono, ui-monospace, monospace">250</text><line x1="74" y1="191.5" x2="634" y2="191.5" stroke="currentColor" stroke-opacity=".13" stroke-width="1"></line><text x="65" y="195.5" text-anchor="end" fill="currentColor" fill-opacity=".62" font-size="11.5" font-family="IBM Plex Mono, ui-monospace, monospace">500</text><line x1="74" y1="124.2" x2="634" y2="124.2" stroke="currentColor" stroke-opacity=".13" stroke-width="1"></line><text x="65" y="128.2" text-anchor="end" fill="currentColor" fill-opacity=".62" font-size="11.5" font-family="IBM Plex Mono, ui-monospace, monospace">750</text><line x1="74" y1="56.9" x2="634" y2="56.9" stroke="currentColor" stroke-opacity=".13" stroke-width="1"></line><text x="65" y="60.9" text-anchor="end" fill="currentColor" fill-opacity=".62" font-size="11.5" font-family="IBM Plex Mono, ui-monospace, monospace">1000</text><rect x="74" y="30" width="560" height="296" fill="none" stroke="currentColor" stroke-opacity=".35" stroke-width="1"></rect><polyline points="74.56,325.73 75.96,325.06 77.36,324.38 78.77,323.71 80.17,323.04 81.57,322.36 82.97,321.69 84.37,321.01 85.78,320.34 87.18,319.67 88.58,318.99 89.98,318.32 91.39,317.65 92.79,316.97 94.19,316.30 95.59,315.62 96.99,314.95 98.40,314.28 99.80,313.60 101.20,312.93 102.60,312.26 104.00,311.58 105.41,310.91 106.81,310.23 108.21,309.56 109.61,308.89 111.01,308.21 112.42,307.54 113.82,306.87 115.22,306.19 116.62,305.52 118.03,304.85 119.43,304.17 120.83,303.50 122.23,302.82 123.63,302.15 125.04,301.48 126.44,300.80 127.84,300.13 129.24,299.46 130.64,298.78 132.05,298.11 133.45,297.43 134.85,296.76 136.25,296.09 137.65,295.41 139.06,294.74 140.46,294.07 141.86,293.39 143.26,292.72 144.67,292.04 146.07,291.37 147.47,290.70 148.87,290.02 150.27,289.35 151.68,288.68 153.08,288.00 154.48,287.33 155.88,286.65 157.28,285.98 158.69,285.31 160.09,284.63 161.49,283.96 162.89,283.29 164.29,282.61 165.70,281.94 167.10,281.26 168.50,280.59 169.90,279.92 171.31,279.24 172.71,278.57 174.11,277.90 175.51,277.22 176.91,276.55 178.32,275.87 179.72,275.20 181.12,274.53 182.52,273.85 183.92,273.18 185.33,272.51 186.73,271.83 188.13,271.16 189.53,270.48 190.93,269.81 192.34,269.14 193.74,268.46 195.14,267.79 196.54,267.12 197.95,266.44 199.35,265.77 200.75,265.09 202.15,264.42 203.55,263.75 204.96,263.07 206.36,262.40 207.76,261.73 209.16,261.05 210.56,260.38 211.97,259.70 213.37,259.03 214.77,258.36 216.17,257.68 217.57,257.01 218.98,256.34 220.38,255.66 221.78,254.99 223.18,254.31 224.59,253.64 225.99,252.97 227.39,252.29 228.79,251.62 230.19,250.95 231.60,250.27 233.00,249.60 234.40,248.92 235.80,248.25 237.20,247.58 238.61,246.90 240.01,246.23 241.41,245.56 242.81,244.88 244.21,244.21 245.62,243.53 247.02,242.86 248.42,242.19 249.82,241.51 251.23,240.84 252.63,240.17 254.03,239.49 255.43,238.82 256.83,238.14 258.24,237.47 259.64,236.80 261.04,236.12 262.44,235.45 263.84,234.78 265.25,234.10 266.65,233.43 268.05,232.75 269.45,232.08 270.85,231.41 272.26,230.73 273.66,230.06 275.06,229.39 276.46,228.71 277.87,228.04 279.27,227.37 280.67,226.69 282.07,226.02 283.47,225.34 284.88,224.67 286.28,224.00 287.68,223.32 289.08,222.65 290.48,221.98 291.89,221.30 293.29,220.63 294.69,219.95 296.09,219.28 297.49,218.61 298.90,217.93 300.30,217.26 301.70,216.59 303.10,215.91 304.51,215.24 305.91,214.56 307.31,213.89 308.71,213.22 310.11,212.54 311.52,211.87 312.92,211.20 314.32,210.52 315.72,209.85 317.12,209.17 318.53,208.50 319.93,207.83 321.33,207.15 322.73,206.48 324.13,205.81 325.54,205.13 326.94,204.46 328.34,203.78 329.74,203.11 331.15,202.44 332.55,201.76 333.95,201.09 335.35,200.42 336.75,199.74 338.16,199.07 339.56,198.39 340.96,197.72 342.36,197.05 343.76,196.37 345.17,195.70 346.57,195.03 347.97,194.35 349.37,193.68 350.77,193.00 352.18,192.33 353.58,191.66 354.98,190.98 356.38,190.31 357.79,189.64 359.19,188.96 360.59,188.29 361.99,187.61 363.39,186.94 364.80,186.27 366.20,185.59 367.60,184.92 369.00,184.25 370.40,183.57 371.81,182.90 373.21,182.22 374.61,181.55 376.01,180.88 377.41,180.20 378.82,179.53 380.22,178.86 381.62,178.18 383.02,177.51 384.43,176.83 385.83,176.16 387.23,175.49 388.63,174.81 390.03,174.14 391.44,173.47 392.84,172.79 394.24,172.12 395.64,171.44 397.04,170.77 398.45,170.10 399.85,169.42 401.25,168.75 402.65,168.08 404.05,167.40 405.46,166.73 406.86,166.05 408.26,165.38 409.66,164.71 411.07,164.03 412.47,163.36 413.87,162.69 415.27,162.01 416.67,161.34 418.08,160.66 419.48,159.99 420.88,159.32 422.28,158.64 423.68,157.97 425.09,157.30 426.49,156.62 427.89,155.95 429.29,155.27 430.69,154.60 432.10,153.93 433.50,153.25 434.90,152.58 436.30,151.91 437.71,151.23 439.11,150.56 440.51,149.89 441.91,149.21 443.31,148.54 444.72,147.86 446.12,147.19 447.52,146.52 448.92,145.84 450.32,145.17 451.73,144.50 453.13,143.82 454.53,143.15 455.93,142.47 457.33,141.80 458.74,141.13 460.14,140.45 461.54,139.78 462.94,139.11 464.35,138.43 465.75,137.76 467.15,137.08 468.55,136.41 469.95,135.74 471.36,135.06 472.76,134.39 474.16,133.72 475.56,133.04 476.96,132.37 478.37,131.69 479.77,131.02 481.17,130.35 482.57,129.67 483.97,129.00 485.38,128.33 486.78,127.65 488.18,126.98 489.58,126.30 490.99,125.63 492.39,124.96 493.79,124.28 495.19,123.61 496.59,122.94 498.00,122.26 499.40,121.59 500.80,120.91 502.20,120.24 503.60,119.57 505.01,118.89 506.41,118.22 507.81,117.55 509.21,116.87 510.61,116.20 512.02,115.52 513.42,114.85 514.82,114.18 516.22,113.50 517.63,112.83 519.03,112.16 520.43,111.48 521.83,110.81 523.23,110.13 524.64,109.46 526.04,108.79 527.44,108.11 528.84,107.44 530.24,106.77 531.65,106.09 533.05,105.42 534.45,104.74 535.85,104.07 537.25,103.40 538.66,102.72 540.06,102.05 541.46,101.38 542.86,100.70 544.27,100.03 545.67,99.35 547.07,98.68 548.47,98.01 549.87,97.33 551.28,96.66 552.68,95.99 554.08,95.31 555.48,94.64 556.88,93.96 558.29,93.29 559.69,92.62 561.09,91.94 562.49,91.27 563.89,90.60 565.30,89.92 566.70,89.25 568.10,88.57 569.50,87.90 570.91,87.23 572.31,86.55 573.71,85.88 575.11,85.21 576.51,84.53 577.92,83.86 579.32,83.18 580.72,82.51 582.12,81.84 583.52,81.16 584.93,80.49 586.33,79.82 587.73,79.14 589.13,78.47 590.53,77.79 591.94,77.12 593.34,76.45 594.74,75.77 596.14,75.10 597.55,74.43 598.95,73.75 600.35,73.08 601.75,72.41 603.15,71.73 604.56,71.06 605.96,70.38 607.36,69.71 608.76,69.04 610.16,68.36 611.57,67.69 612.97,67.02 614.37,66.34 615.77,65.67 617.17,64.99 618.58,64.32 619.98,63.65 621.38,62.97 622.78,62.30 624.19,61.63 625.59,60.95 626.99,60.28 628.39,59.60 629.79,58.93 631.20,58.26 632.60,57.58 634.00,56.91" fill="none" stroke="#C4402B" stroke-width="2.6"></polyline><text x="639.6" y="60.9" text-anchor="end" fill="#C4402B" font-size="11.5" font-family="IBM Plex Mono, ui-monospace, monospace">1000 µm</text><text x="421.2" y="150.0" text-anchor="middle" fill="#C4402B" font-size="11.5" font-family="IBM Plex Mono, ui-monospace, monospace">선형  x = k·t</text><polyline points="74.56,323.31 75.96,320.96 77.36,319.40 78.77,318.15 80.17,317.07 81.57,316.11 82.97,315.23 84.37,314.42 85.78,313.66 87.18,312.95 88.58,312.27 89.98,311.62 91.39,311.01 92.79,310.41 94.19,309.84 95.59,309.29 96.99,308.76 98.40,308.24 99.80,307.74 101.20,307.25 102.60,306.77 104.00,306.30 105.41,305.85 106.81,305.40 108.21,304.97 109.61,304.54 111.01,304.12 112.42,303.71 113.82,303.31 115.22,302.91 116.62,302.52 118.03,302.14 119.43,301.76 120.83,301.39 122.23,301.03 123.63,300.67 125.04,300.31 126.44,299.96 127.84,299.61 129.24,299.27 130.64,298.94 132.05,298.60 133.45,298.27 134.85,297.95 136.25,297.63 137.65,297.31 139.06,297.00 140.46,296.69 141.86,296.38 143.26,296.07 144.67,295.77 146.07,295.47 147.47,295.18 148.87,294.89 150.27,294.60 151.68,294.31 153.08,294.02 154.48,293.74 155.88,293.46 157.28,293.18 158.69,292.91 160.09,292.64 161.49,292.37 162.89,292.10 164.29,291.83 165.70,291.57 167.10,291.30 168.50,291.04 169.90,290.79 171.31,290.53 172.71,290.27 174.11,290.02 175.51,289.77 176.91,289.52 178.32,289.27 179.72,289.03 181.12,288.78 182.52,288.54 183.92,288.30 185.33,288.06 186.73,287.82 188.13,287.58 189.53,287.35 190.93,287.12 192.34,286.88 193.74,286.65 195.14,286.42 196.54,286.19 197.95,285.97 199.35,285.74 200.75,285.52 202.15,285.29 203.55,285.07 204.96,284.85 206.36,284.63 207.76,284.41 209.16,284.19 210.56,283.98 211.97,283.76 213.37,283.55 214.77,283.34 216.17,283.12 217.57,282.91 218.98,282.70 220.38,282.49 221.78,282.29 223.18,282.08 224.59,281.87 225.99,281.67 227.39,281.46 228.79,281.26 230.19,281.06 231.60,280.86 233.00,280.66 234.40,280.46 235.80,280.26 237.20,280.06 238.61,279.87 240.01,279.67 241.41,279.47 242.81,279.28 244.21,279.09 245.62,278.89 247.02,278.70 248.42,278.51 249.82,278.32 251.23,278.13 252.63,277.94 254.03,277.75 255.43,277.56 256.83,277.38 258.24,277.19 259.64,277.01 261.04,276.82 262.44,276.64 263.84,276.45 265.25,276.27 266.65,276.09 268.05,275.91 269.45,275.73 270.85,275.55 272.26,275.37 273.66,275.19 275.06,275.01 276.46,274.83 277.87,274.66 279.27,274.48 280.67,274.31 282.07,274.13 283.47,273.96 284.88,273.78 286.28,273.61 287.68,273.44 289.08,273.26 290.48,273.09 291.89,272.92 293.29,272.75 294.69,272.58 296.09,272.41 297.49,272.24 298.90,272.07 300.30,271.91 301.70,271.74 303.10,271.57 304.51,271.41 305.91,271.24 307.31,271.07 308.71,270.91 310.11,270.75 311.52,270.58 312.92,270.42 314.32,270.26 315.72,270.09 317.12,269.93 318.53,269.77 319.93,269.61 321.33,269.45 322.73,269.29 324.13,269.13 325.54,268.97 326.94,268.81 328.34,268.65 329.74,268.49 331.15,268.34 332.55,268.18 333.95,268.02 335.35,267.87 336.75,267.71 338.16,267.56 339.56,267.40 340.96,267.25 342.36,267.09 343.76,266.94 345.17,266.79 346.57,266.63 347.97,266.48 349.37,266.33 350.77,266.18 352.18,266.03 353.58,265.87 354.98,265.72 356.38,265.57 357.79,265.42 359.19,265.27 360.59,265.13 361.99,264.98 363.39,264.83 364.80,264.68 366.20,264.53 367.60,264.39 369.00,264.24 370.40,264.09 371.81,263.95 373.21,263.80 374.61,263.65 376.01,263.51 377.41,263.36 378.82,263.22 380.22,263.08 381.62,262.93 383.02,262.79 384.43,262.64 385.83,262.50 387.23,262.36 388.63,262.22 390.03,262.07 391.44,261.93 392.84,261.79 394.24,261.65 395.64,261.51 397.04,261.37 398.45,261.23 399.85,261.09 401.25,260.95 402.65,260.81 404.05,260.67 405.46,260.53 406.86,260.40 408.26,260.26 409.66,260.12 411.07,259.98 412.47,259.84 413.87,259.71 415.27,259.57 416.67,259.44 418.08,259.30 419.48,259.16 420.88,259.03 422.28,258.89 423.68,258.76 425.09,258.62 426.49,258.49 427.89,258.35 429.29,258.22 430.69,258.09 432.10,257.95 433.50,257.82 434.90,257.69 436.30,257.56 437.71,257.42 439.11,257.29 440.51,257.16 441.91,257.03 443.31,256.90 444.72,256.77 446.12,256.63 447.52,256.50 448.92,256.37 450.32,256.24 451.73,256.11 453.13,255.98 454.53,255.85 455.93,255.73 457.33,255.60 458.74,255.47 460.14,255.34 461.54,255.21 462.94,255.08 464.35,254.96 465.75,254.83 467.15,254.70 468.55,254.57 469.95,254.45 471.36,254.32 472.76,254.19 474.16,254.07 475.56,253.94 476.96,253.82 478.37,253.69 479.77,253.57 481.17,253.44 482.57,253.32 483.97,253.19 485.38,253.07 486.78,252.94 488.18,252.82 489.58,252.69 490.99,252.57 492.39,252.45 493.79,252.32 495.19,252.20 496.59,252.08 498.00,251.96 499.40,251.83 500.80,251.71 502.20,251.59 503.60,251.47 505.01,251.35 506.41,251.23 507.81,251.10 509.21,250.98 510.61,250.86 512.02,250.74 513.42,250.62 514.82,250.50 516.22,250.38 517.63,250.26 519.03,250.14 520.43,250.02 521.83,249.90 523.23,249.78 524.64,249.67 526.04,249.55 527.44,249.43 528.84,249.31 530.24,249.19 531.65,249.07 533.05,248.96 534.45,248.84 535.85,248.72 537.25,248.60 538.66,248.49 540.06,248.37 541.46,248.25 542.86,248.14 544.27,248.02 545.67,247.91 547.07,247.79 548.47,247.67 549.87,247.56 551.28,247.44 552.68,247.33 554.08,247.21 555.48,247.10 556.88,246.98 558.29,246.87 559.69,246.75 561.09,246.64 562.49,246.52 563.89,246.41 565.30,246.30 566.70,246.18 568.10,246.07 569.50,245.96 570.91,245.84 572.31,245.73 573.71,245.62 575.11,245.50 576.51,245.39 577.92,245.28 579.32,245.17 580.72,245.06 582.12,244.94 583.52,244.83 584.93,244.72 586.33,244.61 587.73,244.50 589.13,244.39 590.53,244.28 591.94,244.16 593.34,244.05 594.74,243.94 596.14,243.83 597.55,243.72 598.95,243.61 600.35,243.50 601.75,243.39 603.15,243.28 604.56,243.17 605.96,243.06 607.36,242.95 608.76,242.85 610.16,242.74 611.57,242.63 612.97,242.52 614.37,242.41 615.77,242.30 617.17,242.19 618.58,242.09 619.98,241.98 621.38,241.87 622.78,241.76 624.19,241.65 625.59,241.55 626.99,241.44 628.39,241.33 629.79,241.23 631.20,241.12 632.60,241.01 634.00,240.91" fill="none" stroke="#D07A3B" stroke-width="2.6"></polyline><text x="639.6" y="244.9" text-anchor="end" fill="#D07A3B" font-size="11.5" font-family="IBM Plex Mono, ui-monospace, monospace">316 µm</text><text x="421.2" y="249.8" text-anchor="middle" fill="#D07A3B" font-size="11.5" font-family="IBM Plex Mono, ui-monospace, monospace">포물선  x = √(k·t)</text><polyline points="74.56,322.22 75.96,317.58 77.36,314.99 78.77,313.19 80.17,311.80 81.57,310.68 82.97,309.73 84.37,308.92 85.78,308.20 87.18,307.56 88.58,306.98 89.98,306.45 91.39,305.96 92.79,305.51 94.19,305.09 95.59,304.70 96.99,304.34 98.40,303.99 99.80,303.66 101.20,303.35 102.60,303.06 104.00,302.78 105.41,302.51 106.81,302.25 108.21,302.01 109.61,301.77 111.01,301.54 112.42,301.32 113.82,301.11 115.22,300.91 116.62,300.71 118.03,300.52 119.43,300.33 120.83,300.15 122.23,299.98 123.63,299.81 125.04,299.64 126.44,299.48 127.84,299.32 129.24,299.17 130.64,299.02 132.05,298.88 133.45,298.74 134.85,298.60 136.25,298.46 137.65,298.33 139.06,298.20 140.46,298.07 141.86,297.95 143.26,297.83 144.67,297.71 146.07,297.59 147.47,297.48 148.87,297.37 150.27,297.25 151.68,297.15 153.08,297.04 154.48,296.94 155.88,296.83 157.28,296.73 158.69,296.63 160.09,296.53 161.49,296.44 162.89,296.34 164.29,296.25 165.70,296.16 167.10,296.07 168.50,295.98 169.90,295.89 171.31,295.80 172.71,295.72 174.11,295.63 175.51,295.55 176.91,295.47 178.32,295.39 179.72,295.31 181.12,295.23 182.52,295.15 183.92,295.08 185.33,295.00 186.73,294.93 188.13,294.85 189.53,294.78 190.93,294.71 192.34,294.64 193.74,294.57 195.14,294.50 196.54,294.43 197.95,294.36 199.35,294.29 200.75,294.23 202.15,294.16 203.55,294.10 204.96,294.03 206.36,293.97 207.76,293.91 209.16,293.84 210.56,293.78 211.97,293.72 213.37,293.66 214.77,293.60 216.17,293.54 217.57,293.48 218.98,293.42 220.38,293.37 221.78,293.31 223.18,293.25 224.59,293.20 225.99,293.14 227.39,293.09 228.79,293.03 230.19,292.98 231.60,292.93 233.00,292.87 234.40,292.82 235.80,292.77 237.20,292.72 238.61,292.67 240.01,292.61 241.41,292.56 242.81,292.51 244.21,292.47 245.62,292.42 247.02,292.37 248.42,292.32 249.82,292.27 251.23,292.22 252.63,292.18 254.03,292.13 255.43,292.08 256.83,292.04 258.24,291.99 259.64,291.95 261.04,291.90 262.44,291.86 263.84,291.81 265.25,291.77 266.65,291.72 268.05,291.68 269.45,291.64 270.85,291.60 272.26,291.55 273.66,291.51 275.06,291.47 276.46,291.43 277.87,291.39 279.27,291.35 280.67,291.30 282.07,291.26 283.47,291.22 284.88,291.18 286.28,291.14 287.68,291.11 289.08,291.07 290.48,291.03 291.89,290.99 293.29,290.95 294.69,290.91 296.09,290.87 297.49,290.84 298.90,290.80 300.30,290.76 301.70,290.72 303.10,290.69 304.51,290.65 305.91,290.62 307.31,290.58 308.71,290.54 310.11,290.51 311.52,290.47 312.92,290.44 314.32,290.40 315.72,290.37 317.12,290.33 318.53,290.30 319.93,290.26 321.33,290.23 322.73,290.20 324.13,290.16 325.54,290.13 326.94,290.10 328.34,290.06 329.74,290.03 331.15,290.00 332.55,289.96 333.95,289.93 335.35,289.90 336.75,289.87 338.16,289.84 339.56,289.80 340.96,289.77 342.36,289.74 343.76,289.71 345.17,289.68 346.57,289.65 347.97,289.62 349.37,289.59 350.77,289.56 352.18,289.53 353.58,289.50 354.98,289.47 356.38,289.44 357.79,289.41 359.19,289.38 360.59,289.35 361.99,289.32 363.39,289.29 364.80,289.26 366.20,289.23 367.60,289.20 369.00,289.17 370.40,289.15 371.81,289.12 373.21,289.09 374.61,289.06 376.01,289.03 377.41,289.01 378.82,288.98 380.22,288.95 381.62,288.92 383.02,288.90 384.43,288.87 385.83,288.84 387.23,288.82 388.63,288.79 390.03,288.76 391.44,288.74 392.84,288.71 394.24,288.68 395.64,288.66 397.04,288.63 398.45,288.60 399.85,288.58 401.25,288.55 402.65,288.53 404.05,288.50 405.46,288.48 406.86,288.45 408.26,288.43 409.66,288.40 411.07,288.38 412.47,288.35 413.87,288.33 415.27,288.30 416.67,288.28 418.08,288.25 419.48,288.23 420.88,288.20 422.28,288.18 423.68,288.16 425.09,288.13 426.49,288.11 427.89,288.08 429.29,288.06 430.69,288.04 432.10,288.01 433.50,287.99 434.90,287.97 436.30,287.94 437.71,287.92 439.11,287.90 440.51,287.87 441.91,287.85 443.31,287.83 444.72,287.81 446.12,287.78 447.52,287.76 448.92,287.74 450.32,287.72 451.73,287.69 453.13,287.67 454.53,287.65 455.93,287.63 457.33,287.61 458.74,287.58 460.14,287.56 461.54,287.54 462.94,287.52 464.35,287.50 465.75,287.48 467.15,287.45 468.55,287.43 469.95,287.41 471.36,287.39 472.76,287.37 474.16,287.35 475.56,287.33 476.96,287.31 478.37,287.29 479.77,287.27 481.17,287.24 482.57,287.22 483.97,287.20 485.38,287.18 486.78,287.16 488.18,287.14 489.58,287.12 490.99,287.10 492.39,287.08 493.79,287.06 495.19,287.04 496.59,287.02 498.00,287.00 499.40,286.98 500.80,286.96 502.20,286.94 503.60,286.92 505.01,286.90 506.41,286.88 507.81,286.86 509.21,286.85 510.61,286.83 512.02,286.81 513.42,286.79 514.82,286.77 516.22,286.75 517.63,286.73 519.03,286.71 520.43,286.69 521.83,286.67 523.23,286.66 524.64,286.64 526.04,286.62 527.44,286.60 528.84,286.58 530.24,286.56 531.65,286.54 533.05,286.53 534.45,286.51 535.85,286.49 537.25,286.47 538.66,286.45 540.06,286.44 541.46,286.42 542.86,286.40 544.27,286.38 545.67,286.36 547.07,286.35 548.47,286.33 549.87,286.31 551.28,286.29 552.68,286.27 554.08,286.26 555.48,286.24 556.88,286.22 558.29,286.21 559.69,286.19 561.09,286.17 562.49,286.15 563.89,286.14 565.30,286.12 566.70,286.10 568.10,286.08 569.50,286.07 570.91,286.05 572.31,286.03 573.71,286.02 575.11,286.00 576.51,285.98 577.92,285.97 579.32,285.95 580.72,285.93 582.12,285.92 583.52,285.90 584.93,285.88 586.33,285.87 587.73,285.85 589.13,285.84 590.53,285.82 591.94,285.80 593.34,285.79 594.74,285.77 596.14,285.75 597.55,285.74 598.95,285.72 600.35,285.71 601.75,285.69 603.15,285.67 604.56,285.66 605.96,285.64 607.36,285.63 608.76,285.61 610.16,285.60 611.57,285.58 612.97,285.56 614.37,285.55 615.77,285.53 617.17,285.52 618.58,285.50 619.98,285.49 621.38,285.47 622.78,285.46 624.19,285.44 625.59,285.43 626.99,285.41 628.39,285.39 629.79,285.38 631.20,285.36 632.60,285.35 634.00,285.33" fill="none" stroke="#2F6FC4" stroke-width="2.6"></polyline><text x="639.6" y="289.3" text-anchor="end" fill="#2F6FC4" font-size="11.5" font-family="IBM Plex Mono, ui-monospace, monospace">151 µm</text><text x="421.2" y="279.0" text-anchor="middle" fill="#2F6FC4" font-size="11.5" font-family="IBM Plex Mono, ui-monospace, monospace">로그  x = A·ln(1+t/t₀)</text><circle cx="130.0" cy="299.1" r="4" fill="currentColor"></circle><text x="149.6" y="262.8" text-anchor="start" fill="currentColor" fill-opacity=".7" font-size="11.5" font-family="IBM Plex Sans KR, sans-serif">1년에 100 µm — 세 법칙 모두 동일</text><line x1="146.8" y1="264.6" x2="132.8" y2="294.2" stroke="currentColor" stroke-opacity=".35" stroke-width="1"></line><text x="88.0" y="83.8" text-anchor="start" fill="currentColor" fill-opacity=".75" font-size="12" font-family="IBM Plex Sans KR, sans-serif">10년 예측은 7배까지 벌어진다</text><text x="634.0" y="362" text-anchor="end" fill="currentColor" fill-opacity=".62" font-size="11.5" font-family="IBM Plex Mono, ui-monospace, monospace">경과 시간 [년]</text><text x="6" y="22" fill="currentColor" fill-opacity=".62" font-size="11.5" font-family="IBM Plex Mono, ui-monospace, monospace">부식 깊이 [µm]</text></svg>